<svg width="52" height="14" viewBox="0 0 52 14" fill="none" xmlns="http://www.w3.org/2000/svg">
<path fill-rule="evenodd" clip-rule="evenodd" d="M9.92773 5.40979C7.41829 5.40979 5.38704 7.32385 5.38704 9.68852C5.38704 12.0532 7.41829 13.9672 9.92773 13.9672C12.4372 13.9672 14.4684 12.0532 14.4684 9.68852C14.4684 7.32385 12.4372 5.40979 9.92773 5.40979ZM18.5478 1.99239C18.7975 2.49882 18.9964 3.06507 19.1488 3.67916C19.4958 4.70398 18.9837 4.91931 17.7988 4.50061C16.9271 4.01013 16.0553 3.51567 15.1836 3.02519C14.7393 2.7301 14.5277 2.43901 14.5996 2.1519C14.7435 1.58565 15.903 1.29057 16.8551 1.11511C18.0654 0.887819 17.9808 0.839968 18.5478 1.99239ZM41.903 7.69869C40.7393 7.69869 39.7913 8.58793 39.7913 9.68852C39.7913 10.7851 40.735 11.6783 41.903 11.6783C43.0667 11.6783 44.0146 10.7891 44.0146 9.68852C44.0146 8.58793 43.071 7.69869 41.903 7.69869ZM9.92773 7.69869C8.764 7.69869 7.81608 8.58793 7.81608 9.68852C7.81608 10.7851 8.75977 11.6783 9.92773 11.6783C11.0915 11.6783 12.0394 10.7891 12.0394 9.68852C12.0394 8.58793 11.0957 7.69869 9.92773 7.69869ZM32.4746 4.98312C31.3024 3.79879 29.9482 3.02918 28.3825 2.28748C24.9548 0.660524 22.8558 0.859906 19.2165 0.859906L20.4395 3.85063C20.9515 4.48865 21.5312 4.93925 22.4115 4.98312H32.4746ZM41.903 5.40979C39.3936 5.40979 37.3623 7.32385 37.3623 9.68852C37.3623 12.0532 39.3936 13.9672 41.903 13.9672C44.4124 13.9672 46.4437 12.0532 46.4437 9.68852C46.4437 7.32385 44.4124 5.40979 41.903 5.40979ZM34.7259 4.10584C33.2363 3.23255 31.6156 2.45097 29.8213 1.78504C24.3581 -0.244668 20.1813 -0.607542 14.4515 1.02739C12.7249 1.64547 10.9984 2.26355 9.27181 2.64636C7.56641 3.02918 0.181965 3.39604 0 4.56441L1.82389 6.61804C1.1595 7.16036 0.61784 7.8263 0.418945 8.86707C0.473957 9.50908 0.660156 10.0474 0.98177 10.4781C1.52767 11.2158 3.12728 11.9774 3.99056 11.5428C4.26562 11.4032 4.4222 11.1241 4.41796 10.6495C4.39257 1.1191 16.6012 2.20374 15.6829 11.7741H36.9857C33.0417 2.18779 49.8672 2.1519 46.8796 11.4431C47.929 12.5118 50.4046 10.9008 52 7.47538C51.5641 7.06865 51.0859 6.68185 50.5527 6.32296C50.5781 6.30302 50.5273 6.39872 50.6162 6.25517C50.7051 6.11161 50.4004 5.50948 49.7741 5.16256C46.4902 3.34819 38.5726 3.39604 34.7259 4.10584Z" fill="white"/>
</svg>
