<svg width="171" height="57" viewBox="0 0 171 57" fill="none" xmlns="http://www.w3.org/2000/svg">
<g filter="url(#filter0_f_1_187)">
<path d="M26.6186 12.4402L29.4299 16.3216L25.6064 8.71383C32.7823 8.75818 39.9822 8.80268 47.158 8.84704L49.5124 12.9177L44.3595 25.078C36.6796 25.0306 28.9998 24.9831 21.3199 24.9356L26.6186 12.4402ZM35.1678 11.485L30.5982 22.2809L37.3661 22.3228L41.2792 13.1068L40.3277 11.5169L35.1678 11.485ZM52.8263 12.6021L55.6376 16.4836L51.8141 8.87582C55.3901 8.89792 58.966 8.92003 62.5419 8.94213L57.4863 20.8631L58.4378 22.453L63.5977 22.4849C65.4938 17.9845 67.4138 13.4843 69.3098 8.98396L77.4456 9.03425C75.1608 14.4442 72.876 19.8302 70.5911 25.2402C64.2553 25.201 57.9434 25.162 51.6075 25.1228L49.2532 21.0522L52.8263 12.6021ZM73.5142 25.2583L78.8129 12.7628L81.6243 16.6442L77.8008 9.03645C84.9766 9.0808 92.1765 9.1253 99.3523 9.16966L101.707 13.2403L96.5538 25.4007L88.4179 25.3504L90.7268 19.9405L83.9349 19.8986L81.6501 25.3085L73.5142 25.2583ZM87.3621 11.8076L85.0772 17.2176L91.8691 17.2596L93.4736 13.4294L92.522 11.8395L87.3621 11.8076ZM104.805 12.9234L107.616 16.8049L103.792 9.1971C110.968 9.24146 107.32 9.21891 114.496 9.26327C112.6 13.7636 110.68 18.2638 108.784 22.7642C113.752 22.7949 117.04 22.8152 122.008 22.846L120.866 25.5509L99.5059 25.4189L104.805 12.9234ZM128.734 13.0713L131.545 16.9528L127.722 9.34501C134.898 9.38937 142.097 9.43387 149.273 9.47823L152.211 12.2084L149.343 18.9588L147.152 20.2893L144.608 20.2736L147.843 25.7177L139.707 25.6674L136.472 20.2233L133.856 20.2071L131.571 25.6171L123.435 25.5668L128.734 13.0713ZM137.283 12.1162L134.998 17.5261L141.79 17.5681L144.075 12.1581L137.283 12.1162Z" fill="#D72835"/>
</g>
<path d="M26.6186 12.4402L29.4299 16.3216L25.6064 8.71383C32.7823 8.75818 39.9822 8.80268 47.158 8.84704L49.5124 12.9177L44.3595 25.078C36.6796 25.0306 28.9998 24.9831 21.3199 24.9356L26.6186 12.4402ZM35.1678 11.485L30.5982 22.2809L37.3661 22.3228L41.2792 13.1068L40.3277 11.5169L35.1678 11.485ZM52.8263 12.6021L55.6376 16.4836L51.8141 8.87582C55.3901 8.89792 58.966 8.92003 62.5419 8.94213L57.4863 20.8631L58.4378 22.453L63.5977 22.4849C65.4938 17.9845 67.4138 13.4843 69.3098 8.98396L77.4456 9.03425C75.1608 14.4442 72.876 19.8302 70.5911 25.2402C64.2553 25.201 57.9434 25.162 51.6075 25.1228L49.2532 21.0522L52.8263 12.6021ZM73.5142 25.2583L78.8129 12.7628L81.6243 16.6442L77.8008 9.03645C84.9766 9.0808 92.1765 9.1253 99.3523 9.16966L101.707 13.2403L96.5538 25.4007L88.4179 25.3504L90.7268 19.9405L83.9349 19.8986L81.6501 25.3085L73.5142 25.2583ZM87.3621 11.8076L85.0772 17.2176L91.8691 17.2596L93.4736 13.4294L92.522 11.8395L87.3621 11.8076ZM104.805 12.9234L107.616 16.8049L103.792 9.1971C110.968 9.24146 107.32 9.21891 114.496 9.26327C112.6 13.7636 110.68 18.2638 108.784 22.7642C113.752 22.7949 117.04 22.8152 122.008 22.846L120.866 25.5509L99.5059 25.4189L104.805 12.9234ZM128.734 13.0713L131.545 16.9528L127.722 9.34501C134.898 9.38937 142.097 9.43387 149.273 9.47823L152.211 12.2084L149.343 18.9588L147.152 20.2893L144.608 20.2736L147.843 25.7177L139.707 25.6674L136.472 20.2233L133.856 20.2071L131.571 25.6171L123.435 25.5668L128.734 13.0713ZM137.283 12.1162L134.998 17.5261L141.79 17.5681L144.075 12.1581L137.283 12.1162Z" fill="#D72835"/>
<g filter="url(#filter1_d_1_187)">
<path d="M24.3256 10.4802L27.137 14.3616L23.3135 6.75386C30.4893 6.79822 37.6892 6.84272 44.8651 6.88708L47.2194 10.9577L42.0665 23.1181C34.3866 23.0706 26.7068 23.0231 19.0269 22.9757L24.3256 10.4802ZM32.8748 9.52502L28.3052 20.321L35.0731 20.3628L38.9863 11.1468L38.0347 9.55691L32.8748 9.52502ZM50.5333 10.6422L53.3447 14.5236L49.5212 6.91586C53.0971 6.93796 56.673 6.96006 60.249 6.98217L55.1933 18.9031L56.1449 20.4931L61.3048 20.5249C63.2008 16.0246 65.1208 11.5244 67.0168 7.024L75.1527 7.07429C72.8678 12.4843 70.5831 17.8702 68.2982 23.2802C61.9623 23.2411 55.6504 23.202 49.3145 23.1629L46.9602 19.0923L50.5333 10.6422ZM71.2212 23.2983L76.5199 10.8028L79.3313 14.6843L75.5078 7.07649C82.6836 7.12084 89.8835 7.16534 97.0594 7.2097L99.4137 11.2803L94.2608 23.4407L86.125 23.3904L88.4338 17.9806L81.642 17.9386L79.3571 23.3486L71.2212 23.2983ZM85.0691 9.84764L82.7843 15.2576L89.5761 15.2996L91.1806 11.4694L90.229 9.87953L85.0691 9.84764ZM102.512 10.9635L105.323 14.8449L101.499 7.23714C108.675 7.2815 105.027 7.25895 112.203 7.30331C110.307 11.8037 108.387 16.3039 106.491 20.8043C111.459 20.835 114.747 20.8553 119.715 20.886L118.573 23.591L97.2129 23.459L102.512 10.9635ZM126.441 11.1114L129.252 14.9928L125.429 7.38505C132.605 7.42941 139.804 7.47391 146.98 7.51827L149.918 10.2485L147.05 16.9989L144.859 18.3294L142.315 18.3136L145.55 23.7577L137.414 23.7074L134.179 18.2633L131.563 18.2472L129.278 23.6572L121.142 23.6069L126.441 11.1114ZM134.99 10.1562L132.705 15.5662L139.497 15.6082L141.782 10.1982L134.99 10.1562Z" fill="white"/>
</g>
<path d="M85.1887 52.9996L55.9609 26.9999L85.1887 44.0342L119.829 26.9999L85.1887 52.9996Z" fill="white"/>
<g filter="url(#filter2_f_1_187)">
<path d="M85.1887 52.9996L55.9609 26.9999L85.1887 44.0342L119.829 26.9999L85.1887 52.9996Z" fill="white"/>
</g>
<g filter="url(#filter3_f_1_187)">
<path d="M95.4727 51.5054L120.912 32.0803L104.674 47.3216L166.377 32.0803L95.4727 51.5054Z" fill="white"/>
<path d="M112.252 43.4365L120.912 35.3676L118.747 39.8504L149.057 33.8734L112.252 43.4365Z" fill="white"/>
</g>
<g filter="url(#filter4_f_1_187)">
<path d="M74.9043 51.2066L49.4653 31.7815L65.703 47.0227L3.99992 31.7815L74.9043 51.2066Z" fill="white"/>
<path d="M58.1254 43.1377L49.4653 35.0688L51.6303 39.5515L21.3201 33.5746L58.1254 43.1377Z" fill="white"/>
</g>
<path d="M95.4727 51.5054L120.912 32.0803L104.674 47.3216L166.377 32.0803L95.4727 51.5054Z" fill="white"/>
<path d="M112.252 43.4365L120.912 35.3676L118.747 39.8504L149.057 33.8734L112.252 43.4365Z" fill="white"/>
<path d="M112.251 43.4365L120.912 35.3677L118.747 39.8504L149.057 33.8734L112.251 43.4365Z" fill="white"/>
<path d="M74.9043 51.2066L49.4653 31.7815L65.703 47.0227L3.99992 31.7815L74.9043 51.2066Z" fill="white"/>
<path d="M58.1254 43.1377L49.4653 35.0688L51.6303 39.5515L21.3201 33.5746L58.1254 43.1377Z" fill="white"/>
<g filter="url(#filter5_f_1_187)">
<path d="M113.175 17.3564L114.127 15.1312L123.129 15.1369L122.177 17.3622L113.175 17.3564Z" fill="#D72835"/>
</g>
<path d="M113.174 17.3564L114.126 15.1312L123.128 15.1369L122.176 17.3622L113.174 17.3564Z" fill="#D72835"/>
<g filter="url(#filter6_d_1_187)">
<path d="M112.522 16.4853L113.474 14.2601L122.476 14.2658L121.524 16.4911L112.522 16.4853Z" fill="white"/>
</g>
<defs>
<filter id="filter0_f_1_187" x="17.3198" y="4.68787" width="138.905" height="25.0564" filterUnits="userSpaceOnUse" color-interpolation-filters="sRGB">
<feFlood flood-opacity="0" result="BackgroundImageFix"/>
<feBlend mode="normal" in="SourceGraphic" in2="BackgroundImageFix" result="shape"/>
<feGaussianBlur stdDeviation="2" result="effect1_foregroundBlur_1_187"/>
</filter>
<filter id="filter1_d_1_187" x="16.0269" y="6.72791" width="136.905" height="24.0564" filterUnits="userSpaceOnUse" color-interpolation-filters="sRGB">
<feFlood flood-opacity="0" result="BackgroundImageFix"/>
<feColorMatrix in="SourceAlpha" type="matrix" values="0 0 0 0 0 0 0 0 0 0 0 0 0 0 0 0 0 0 127 0" result="hardAlpha"/>
<feOffset dy="4"/>
<feGaussianBlur stdDeviation="1.5"/>
<feComposite in2="hardAlpha" operator="out"/>
<feColorMatrix type="matrix" values="0 0 0 0 0 0 0 0 0 0 0 0 0 0 0 0 0 0 0.25 0"/>
<feBlend mode="normal" in2="BackgroundImageFix" result="effect1_dropShadow_1_187"/>
<feBlend mode="normal" in="SourceGraphic" in2="effect1_dropShadow_1_187" result="shape"/>
</filter>
<filter id="filter2_f_1_187" x="51.9609" y="22.9999" width="71.8682" height="33.9998" filterUnits="userSpaceOnUse" color-interpolation-filters="sRGB">
<feFlood flood-opacity="0" result="BackgroundImageFix"/>
<feBlend mode="normal" in="SourceGraphic" in2="BackgroundImageFix" result="shape"/>
<feGaussianBlur stdDeviation="2" result="effect1_foregroundBlur_1_187"/>
</filter>
<filter id="filter3_f_1_187" x="91.4727" y="28.0803" width="78.9043" height="27.425" filterUnits="userSpaceOnUse" color-interpolation-filters="sRGB">
<feFlood flood-opacity="0" result="BackgroundImageFix"/>
<feBlend mode="normal" in="SourceGraphic" in2="BackgroundImageFix" result="shape"/>
<feGaussianBlur stdDeviation="2" result="effect1_foregroundBlur_1_187"/>
</filter>
<filter id="filter4_f_1_187" x="0" y="27.7815" width="78.9043" height="27.425" filterUnits="userSpaceOnUse" color-interpolation-filters="sRGB">
<feFlood flood-opacity="0" result="BackgroundImageFix"/>
<feBlend mode="normal" in="SourceGraphic" in2="BackgroundImageFix" result="shape"/>
<feGaussianBlur stdDeviation="2" result="effect1_foregroundBlur_1_187"/>
</filter>
<filter id="filter5_f_1_187" x="109.175" y="11.1306" width="17.9541" height="10.2322" filterUnits="userSpaceOnUse" color-interpolation-filters="sRGB">
<feFlood flood-opacity="0" result="BackgroundImageFix"/>
<feBlend mode="normal" in="SourceGraphic" in2="BackgroundImageFix" result="shape"/>
<feGaussianBlur stdDeviation="2" result="effect1_foregroundBlur_1_187"/>
</filter>
<filter id="filter6_d_1_187" x="109.522" y="14.2595" width="15.9541" height="9.23218" filterUnits="userSpaceOnUse" color-interpolation-filters="sRGB">
<feFlood flood-opacity="0" result="BackgroundImageFix"/>
<feColorMatrix in="SourceAlpha" type="matrix" values="0 0 0 0 0 0 0 0 0 0 0 0 0 0 0 0 0 0 127 0" result="hardAlpha"/>
<feOffset dy="4"/>
<feGaussianBlur stdDeviation="1.5"/>
<feComposite in2="hardAlpha" operator="out"/>
<feColorMatrix type="matrix" values="0 0 0 0 0 0 0 0 0 0 0 0 0 0 0 0 0 0 0.25 0"/>
<feBlend mode="normal" in2="BackgroundImageFix" result="effect1_dropShadow_1_187"/>
<feBlend mode="normal" in="SourceGraphic" in2="effect1_dropShadow_1_187" result="shape"/>
</filter>
</defs>
</svg>
