<svg width="33" height="33" viewBox="0 0 33 33" fill="none" xmlns="http://www.w3.org/2000/svg">
<circle cx="16.2261" cy="16.2493" r="15" fill="#172127"/>
<path d="M32.4541 18.5543C32.385 20.7385 31.6195 22.1173 30.6792 23.8529C28.6848 27.7811 23.7967 31.5844 19.3012 32.2711C18.2911 32.4624 17.2583 32.5565 16.2261 32.5528C13.8526 32.5485 11.4718 32.007 9.35462 31.0038C9.19885 30.9302 9.11908 30.8589 9.04916 30.8241C8.38762 30.5055 7.3154 29.8905 6.73096 29.4522C5.45675 28.5883 3.58615 26.65 2.85131 25.4477C2.5212 24.952 2.21513 24.4218 2.1624 24.1871C2.05903 23.9969 1.94926 23.9216 1.91942 23.8731C1.91917 23.8725 1.91892 23.8719 1.91867 23.8713C1.82168 23.7159 1.65414 23.2827 1.60972 23.1918C1.60302 23.1781 1.60188 23.2825 1.50952 23.0529C1.50154 23.0323 1.53676 23.0384 1.45183 22.8488C1.42673 22.8009 1.11368 22.1781 1.04424 21.9901C0.782543 21.3787 0.385549 19.8412 0.268803 19.0587C0.248073 18.9394 0.219074 18.8734 0.198996 18.7465C0.188597 18.681 0.193539 18.5809 0.190615 18.5608C0.176149 18.4739 0.0413314 18.0978 0.230438 18.2156C0.172857 17.8152 0.131228 17.9385 0.092589 17.9336C0.0429932 17.4961 0.114946 17.2784 0.0214548 17.1682C0.00584972 16.8623 -0.00119328 16.5575 0.000264525 16.2493C0.00824976 14.3861 0.337019 12.5255 0.975549 10.7758C0.962498 10.7704 0.949447 10.765 0.936397 10.7597C1.20883 10.178 1.21136 9.94227 1.43341 9.6398C1.50891 9.42699 1.58859 9.21629 1.67339 9.00586C4.27302 3.81415 9.74626 0.198171 15.5128 0.00200772C15.7539 -0.00711834 15.8144 0.0186722 16.214 0.0168419C16.218 0.0168409 16.222 0.0168384 16.2261 0.0168346C16.6663 0.0152777 17.2802 0.00443161 17.852 0.0629394C18.3613 0.11097 19.1 0.251858 19.6526 0.378305C19.7779 0.406201 19.8724 0.408649 19.8864 0.411967C19.969 0.43185 19.9662 0.462115 20.0458 0.4821C20.1411 0.50607 20.2608 0.513121 20.3712 0.543623C20.7822 0.655445 21.2239 0.78994 21.2754 0.807855C21.521 0.891739 21.5644 0.939887 21.5845 0.94689C21.8541 1.04633 21.7613 0.985817 21.8283 1.01164C22.1761 1.1499 22.393 1.30517 22.8841 1.45473C22.8614 1.47146 22.8387 1.48822 22.816 1.50503C23.1634 1.6781 22.9575 1.51278 23.0346 1.535C23.0679 1.53976 23.8158 1.92061 23.8692 1.95685C24.0652 2.0673 24.0542 2.10002 24.071 2.10957C24.1127 2.13178 24.6217 2.38136 24.8507 2.56323C25.1212 2.77583 24.746 2.61521 24.811 2.67156C24.8224 2.68019 25.125 2.86867 25.1525 2.91341C25.184 2.96092 24.928 2.79091 24.9265 2.80193C24.9272 2.80777 25.3239 3.1301 25.225 3.10151C25.145 3.07998 24.59 2.67195 24.4548 2.61219C24.433 2.60183 24.4519 2.65817 24.4329 2.64838C24.3673 2.5918 22.9692 1.85028 22.898 1.83169C22.98 1.85042 23.062 1.86981 23.144 1.88992C23.0459 1.84061 22.9473 1.79233 22.848 1.74501C22.9961 1.79726 23.143 1.85152 23.2901 1.90847C23.1456 1.67111 22.4385 1.51747 22.3849 1.57666C22.3614 1.60216 22.7171 1.84812 22.3351 1.73887C22.3869 1.76994 22.4386 1.80138 22.4899 1.83304C22.6084 1.86927 22.7265 1.90693 22.8442 1.946C22.7734 1.90347 22.7023 1.86144 22.6307 1.81993C22.6624 1.82309 22.6942 1.82635 22.7259 1.8297C22.9433 1.91023 23.159 1.99555 23.3735 2.08603C23.4765 2.14665 23.4409 2.16175 23.5109 2.20437C24.3722 2.75224 23.8349 2.35141 24.405 2.69907C24.4783 2.76197 24.5511 2.82557 24.6231 2.88966C24.6295 2.81656 24.8586 3.00657 25.1692 3.18557C25.1219 3.1789 25.0746 3.17244 25.0274 3.16627C25.4701 3.43844 26.2208 4.17359 26.0724 3.9073C26.1587 3.98903 26.2439 4.07158 26.3282 4.15513C26.4171 4.20448 26.5056 4.25477 26.5938 4.30601C26.6969 4.39848 26.7987 4.49223 26.8993 4.58733C26.8928 4.59541 26.8862 4.60348 26.8797 4.61156C26.7984 4.53719 26.7164 4.46372 26.6336 4.39108C26.6749 4.46939 26.7153 4.54785 26.7549 4.62646C26.8183 4.67683 26.8814 4.72774 26.9441 4.77914C26.7152 4.52645 27.0775 4.79414 27.1845 4.84106C27.4032 5.03003 27.4928 5.20056 27.5581 5.27118C27.59 5.30249 28.0243 5.62927 27.8045 5.54693C28.0002 5.73978 28.1911 5.93785 28.377 6.14117C28.4397 6.22904 28.5013 6.31733 28.562 6.40628C28.3793 6.25543 28.7511 6.81779 28.4277 6.44356C28.184 6.1671 28.1578 6.07006 28.0429 5.93761C27.9385 5.81888 27.86 5.77724 27.7431 5.65179C26.9518 4.81215 26.2458 4.18612 25.3667 3.53073C25.1925 3.40187 25.021 3.30289 24.9013 3.22059C24.7658 3.12788 24.959 3.20894 24.7787 3.10178C24.5886 2.99027 24.531 2.99274 24.4815 2.96239C24.4508 2.94363 24.3681 2.8591 24.2778 2.80498C23.9078 2.57874 23.332 2.30947 23.2766 2.28346C23.2201 2.24109 22.1145 1.71346 22.0571 1.69815C22.0292 1.68464 22.1279 1.60955 21.8351 1.61579C21.7556 1.58753 21.6757 1.55985 21.5958 1.5329C21.6158 1.51789 21.6358 1.50296 21.6559 1.48805C21.1584 1.39444 21.3368 1.40831 20.8749 1.26699C19.7748 0.924641 18.09 0.606174 16.8295 0.58249C16.5851 0.575343 16.4717 0.592381 16.2261 0.597878C16.1896 0.598789 16.1502 0.599534 16.1071 0.600088C15.7979 0.597673 14.9882 0.571446 15.17 0.665204C14.4782 0.626633 14.3843 0.802638 14.0325 0.751133C13.9933 0.770808 13.9543 0.790627 13.9154 0.810589C13.5373 0.807795 13.431 0.87962 13.0351 0.967233C12.8641 1.00701 13.0476 0.90038 12.7174 1.04743C12.6504 1.0574 12.5834 1.0678 12.5165 1.07863C12.5281 1.05985 12.5397 1.04108 12.5514 1.02233C12.1728 1.1282 12.146 1.13128 12.2045 1.17479C12.0181 1.21345 11.8328 1.25548 11.6484 1.30083C11.6314 1.32593 11.6146 1.35105 11.5978 1.3762C11.6624 1.30477 15.0666 0.55261 16.2261 0.647161C16.3554 0.64477 16.4545 0.644144 16.5154 0.643471C17.2163 0.682484 18.6252 0.78681 19.1819 0.919895C19.4034 0.967458 19.4947 1.02899 19.8144 1.10867C20.1329 1.1879 20.5452 1.26286 20.7134 1.31289C21.2988 1.42269 23.8336 2.55971 22.0825 1.85657C22.1247 1.89641 22.1665 1.93643 22.208 1.97661C22.921 2.20868 22.6569 2.13856 23.2098 2.41728C23.4421 2.53401 24.0065 2.79719 23.9277 2.86417C23.5015 2.63807 23.0591 2.37835 22.6769 2.20476C22.6396 2.18607 22.168 2.02411 21.9353 1.92121C21.7252 1.828 21.9055 1.7953 21.3993 1.71937C21.0815 1.50089 20.8438 1.52388 20.7485 1.5043C20.5815 1.47108 20.5777 1.41868 20.4155 1.36666C20.2385 1.31039 20.106 1.31047 20.0815 1.30431C19.8402 1.22643 18.54 0.982723 18.4806 0.96741C18.5343 0.966451 18.588 0.965747 18.6423 0.965436C18.3043 0.899854 18.3684 0.962085 18.2783 0.95544C18.2118 0.946413 18.1452 0.93781 18.0784 0.929633C18.1061 0.922439 18.1339 0.915318 18.1616 0.908271C17.7579 0.864062 18.0611 0.92973 17.4904 0.876871C17.1265 0.845742 16.7509 0.793755 16.7153 0.795834C16.7048 0.796367 16.8188 0.826749 16.67 0.825814C16.5445 0.825159 16.372 0.823732 16.2261 0.819577C16.0857 0.815419 15.971 0.808215 15.9473 0.790702C15.8263 0.798198 15.8376 0.834044 15.8216 0.835189C15.7512 0.829453 14.5519 0.920955 14.3375 0.962425C13.7472 1.03975 13.0872 1.15136 12.4617 1.31554C12.3974 1.33239 12.4329 1.29969 12.3685 1.31695C12.2632 1.34248 11.7443 1.52789 11.6682 1.55681C11.473 1.62088 10.9602 1.78416 10.885 1.82554C10.8742 1.83106 11.0512 1.79879 10.8602 1.87967C10.6491 1.97077 10.7499 1.88826 10.7381 1.89217C10.2961 2.04711 10.0367 2.19402 9.75001 2.33287C9.65728 2.37785 9.47138 2.43218 9.34482 2.50632C9.33027 2.5148 9.37305 2.5258 9.35894 2.53447C9.16896 2.64661 8.96254 2.69633 8.8768 2.7392C8.66752 2.84453 8.79863 2.81796 8.78798 2.82401C8.65261 2.90058 8.46363 2.99199 8.26264 3.11639C7.36888 3.67581 6.67577 4.19227 5.84511 4.94411C5.74119 5.03884 5.60097 5.13393 5.5854 5.14895C5.53761 5.19541 5.57359 5.20531 5.43605 5.33963C5.14682 5.6237 4.89086 5.89958 4.6273 6.20223C4.57432 6.26322 4.52876 6.26965 4.48828 6.31634C4.34844 6.47109 3.97854 7.07509 3.89468 7.02687C3.71995 7.40842 3.50434 7.58894 3.32349 7.86682C2.88829 8.52054 2.32964 9.61614 2.02761 10.3372C1.96234 10.4878 1.91042 10.5503 1.87556 10.6352C1.80542 10.7854 1.51486 11.679 1.50308 11.7271C1.46897 11.817 1.37217 11.7286 1.33383 12.2352C1.26576 12.5194 1.23171 12.4743 1.21428 12.5324C1.08207 12.9857 1.10216 13.4563 1.0251 13.3542C0.948841 13.8993 0.959312 14.2552 0.845587 14.4679C0.888729 14.4703 0.883692 14.7285 0.843613 15.0353C0.800663 14.7142 0.738532 14.7449 0.855858 13.9814C0.857823 13.9695 0.885218 13.9968 0.887181 13.9849C0.904756 13.8773 0.925362 13.6458 0.960876 13.4616C0.996609 13.2772 0.998589 13.3837 1.01212 13.3099C1.02475 13.2425 0.995006 13.2389 1.01426 13.1414C1.07759 12.8232 1.13739 12.5433 1.18273 12.3654C1.2114 12.2525 1.27068 12.1339 1.29504 12.0474C1.38483 11.7124 1.59485 11.0053 1.76331 10.5945C1.79785 10.5089 1.81014 10.5553 1.88825 10.3699C1.89759 10.3482 1.90111 10.2575 1.96552 10.0922C2.03003 9.92712 2.10078 9.80868 2.14572 9.70457C2.18363 9.61764 2.14144 9.64179 2.22452 9.46547C2.26995 9.30448 3.20539 7.72009 3.28661 7.6541C3.37138 7.53826 3.44166 7.50359 3.4875 7.42914C3.49546 7.41595 3.48005 7.37349 3.50862 7.32821C3.95719 6.56262 5.29921 5.12928 6.08076 4.49509C7.67535 3.12675 9.38724 2.12744 11.405 1.45333C11.4391 1.43547 11.4733 1.41774 11.5077 1.40012C11.302 1.46516 11.0982 1.53435 10.8963 1.60759C10.8891 1.59178 10.8819 1.57595 10.8746 1.56014C10.5992 1.65876 10.6509 1.68504 10.6672 1.70481C10.5629 1.73348 10.4588 1.76325 10.3551 1.7941C10.291 1.88172 9.6163 2.12903 9.28642 2.29907C9.07023 2.40622 8.82939 2.56153 8.71751 2.62172C8.4815 2.74878 8.46988 2.7146 8.45109 2.72427C8.41908 2.74101 8.11274 2.95823 7.88493 3.10305C7.54948 3.31795 7.47822 3.29252 7.06206 3.65097C6.47762 4.03899 5.88837 4.55072 5.35157 5.08158C5.41689 4.9423 4.96827 5.45316 4.76426 5.67972C3.48168 7.03203 2.2358 8.99737 1.57147 10.7741C1.48381 11.0014 1.39512 11.1647 1.35298 11.2943C1.33025 11.3645 1.35507 11.4064 1.31933 11.5023C1.31323 11.5191 1.2756 11.5209 1.21525 11.7012C1.05267 12.1495 0.850586 13.3139 0.746586 13.5988C0.603237 14.4747 0.534811 15.3622 0.540438 16.2493C0.545127 16.9862 0.600243 17.7167 0.706983 18.445C0.698722 18.4872 0.690629 18.5294 0.682703 18.5717C0.788216 18.8691 0.984257 20.0676 1.16732 20.6365C1.45634 21.6425 1.99739 22.8659 2.44096 23.6648C2.53573 23.8392 2.59807 23.9913 2.69335 24.1535C2.73442 24.2233 2.80856 24.2962 2.85236 24.3678C3.33756 25.1777 4.09047 26.2189 4.74655 26.9118C6.22409 28.4909 7.91331 29.7084 9.91911 30.5969C11.9028 31.4709 14.0694 31.9149 16.2261 31.9078C21.4472 31.9395 26.5253 29.134 29.3339 24.7873C29.3875 24.7052 29.4103 24.7257 29.4515 24.6617C29.7014 24.2869 30.1683 23.3987 30.3791 22.9374C30.5558 22.5752 30.8412 21.9973 30.8451 21.8495C30.268 23.1631 29.5387 24.496 28.6212 25.6663C28.556 25.7494 28.5249 25.742 28.5166 25.7519C28.3607 25.9346 28.4872 25.8412 28.2691 26.1131C28.2021 26.2114 27.4171 26.9481 27.5666 26.913C27.3817 27.0957 26.0357 28.3082 25.7487 28.5102C25.667 28.5782 25.743 28.5536 25.7272 28.5676C25.6581 28.6284 25.6025 28.6237 25.5365 28.6721C25.3629 28.8032 24.9246 29.1459 24.8352 29.2023C24.6349 29.3404 23.9991 29.6954 23.7199 29.8524C23.4652 29.9988 23.5321 30.007 23.3076 30.1273C23.1295 30.2197 23.311 30.0953 22.9044 30.2816C22.7053 30.3772 22.0014 30.7043 21.8232 30.7674C21.6468 30.8354 21.4426 30.8859 21.1973 30.9707C20.8446 31.0982 20.0645 31.3319 19.6936 31.4185C19.6715 31.4239 19.624 31.4658 19.5688 31.4772C19.4546 31.5007 19.481 31.4565 19.3942 31.4708C19.3121 31.5021 17.8097 31.7378 17.5514 31.7386C17.3747 31.7532 17.2533 31.7834 17.1548 31.7891C17.0775 31.7933 17.067 31.7625 16.989 31.766C16.9649 31.7673 16.7601 31.8043 16.5526 31.8076C16.4885 31.8088 16.3657 31.8079 16.2261 31.8041C15.9383 31.7972 15.5849 31.7721 15.5276 31.7688C15.4717 31.7661 15.5326 31.7917 15.3667 31.7825C15.2153 31.7737 15.1183 31.7377 15.0327 31.7308C14.834 31.7149 14.6111 31.7184 14.3994 31.6936C13.7946 31.6186 13.8336 31.5789 13.797 31.5741C13.6974 31.5551 13.652 31.5805 13.619 31.5757C13.4794 31.5559 13.1415 31.4978 13.0183 31.4722C12.8649 31.4414 12.8071 31.3967 12.6462 31.3589C12.5264 31.3308 12.2772 31.3013 12.0048 31.226C11.3926 31.0596 10.675 30.8115 10.103 30.5629C9.93184 30.4889 9.91772 30.4506 9.86612 30.4268C9.59571 30.3007 9.43263 30.2549 9.35577 30.2169C8.80575 29.9527 7.89608 29.3569 7.44086 29.0275C7.24937 28.9019 6.4292 28.321 6.01068 27.9372C5.96223 27.8941 6.02248 27.9174 5.96613 27.8724C5.83175 27.7643 5.81353 27.8083 5.74947 27.7484C5.71871 27.7192 5.66482 27.6353 5.5771 27.5491C5.1227 27.1014 4.81333 26.7899 4.62014 26.572C2.75854 24.4791 1.50011 21.8181 1.01435 19.2558C0.959069 18.9719 0.86982 18.6182 0.841685 18.1801C0.85401 18.165 0.866357 18.1499 0.878726 18.1348C0.863121 18.1213 0.847534 18.1077 0.831964 18.094C0.768874 17.5999 0.735891 17.4146 0.729267 16.906C0.728805 16.8622 0.788351 16.7276 0.706512 16.6472C0.739019 16.3008 0.726926 16.3228 0.711128 16.2493C0.704293 16.2157 0.69722 16.1621 0.696972 16.0445C0.696478 15.6701 0.732002 15.3087 0.765955 14.948C0.807979 14.7528 0.815027 15.5876 0.818468 15.639C0.814835 15.7255 0.77237 15.8145 0.768397 15.8985C0.762334 16.0249 0.767836 16.1498 0.770437 16.2493C0.772922 16.3453 0.772548 16.4174 0.755455 16.4451C0.798268 16.7662 0.772757 16.366 0.80757 16.4059C0.79573 16.6205 0.788275 16.8347 0.785167 17.0484C0.893607 17.1525 0.860482 18.3407 0.946041 18.2491C0.940741 18.3444 0.936314 18.4399 0.932759 18.5353C1.10426 18.928 1.06698 19.1745 1.15646 19.7226C1.16124 19.6807 1.16618 19.6388 1.1713 19.597C1.17778 19.6075 1.31245 20.0734 1.21385 19.9191C1.41162 20.3812 1.28153 20.3977 1.50014 20.7974C1.5919 21.0463 1.48723 20.9127 1.64201 21.3621C1.73503 21.627 1.88731 21.9449 2.01105 22.2322C2.03951 22.2987 2.02271 22.3403 2.0484 22.3996C2.0742 22.4588 2.11543 22.4751 2.14796 22.5459C2.21508 22.6924 2.28425 22.8902 2.33045 22.98C2.3717 23.0606 2.45286 23.1645 2.5568 23.3551C2.92766 24.0161 2.7907 23.8309 2.83636 23.9429C2.88892 24.0618 2.97934 24.1157 3.10863 24.3374C3.12167 24.3597 3.05902 24.3199 3.10432 24.3906C3.14116 24.4474 3.18803 24.4583 3.31496 24.6421C3.35323 24.7235 4.16835 25.8389 4.3151 25.9906C4.51653 26.2418 4.97345 26.7972 5.21073 27.0332C5.30084 27.1252 5.4181 27.2023 5.51592 27.2974C5.83834 27.6147 6.3804 28.0965 6.83599 28.4456C7.23915 28.7675 7.96367 29.3229 8.239 29.4175C8.86472 29.7839 9.00568 29.8969 9.05245 29.9254C9.18311 29.9958 9.25858 29.999 9.42666 30.0805C11.333 31.0397 14.0357 31.6906 16.2261 31.6581C16.5226 31.6584 16.8063 31.6501 17.0777 31.635C22.4093 31.3867 27.4618 28.0886 29.9 23.3363C29.894 23.3171 29.8881 23.298 29.8821 23.2789C29.5877 23.8338 29.1858 24.4539 28.828 24.9576C28.3624 25.6374 27.6046 26.6117 27.104 26.9682C27.2707 26.7893 27.5677 26.52 27.5257 26.4916C27.2294 26.813 26.9196 27.1215 26.5972 27.4162C26.6223 27.4241 26.6474 27.432 26.6726 27.4398C26.3424 27.7574 25.9822 28.0582 25.6214 28.343C25.5586 28.3923 25.616 28.3741 25.5609 28.4168C25.4991 28.4642 25.5282 28.4153 25.5165 28.424C25.3599 28.5431 25.3243 28.5947 25.3048 28.6089C25.2546 28.6445 25.2815 28.6004 25.1342 28.6995C24.8607 28.8824 24.6929 29.0559 24.7074 28.9385C24.6194 28.9974 24.5308 29.0554 24.4415 29.1125C24.4316 29.148 24.4216 29.1835 24.4114 29.2189C23.8065 29.4809 23.623 29.7727 23.2388 29.819C23.1429 29.8923 23.0459 29.9647 22.9478 30.0361C22.8764 30.0436 22.8054 30.0505 22.7345 30.0568C22.7317 30.0815 22.7288 30.1061 22.7259 30.1307C22.1381 30.3902 21.5096 30.6628 20.9226 30.848C20.5132 30.9753 20.4129 30.9943 20.0455 31.0925C19.2279 31.2935 20.0322 31.0635 19.3402 31.1706C19.3811 31.1885 19.4222 31.2062 19.4633 31.2238C19.3514 31.2575 19.2398 31.2899 19.1276 31.3209C19.0443 31.3155 18.9612 31.3093 18.8781 31.3024C18.5422 31.4718 18.2982 31.4134 18.2505 31.4201C18.2121 31.4244 18.0844 31.512 17.6567 31.4971C17.8399 31.571 17.3347 31.5262 17.2948 31.5264C17.2566 31.5302 16.7727 31.5768 16.5751 31.5781C16.4939 31.5796 16.3645 31.5762 16.2261 31.5712C16.0993 31.5667 15.9659 31.5607 15.8555 31.5585C15.6517 31.554 15.6714 31.5842 15.6565 31.5842C15.4056 31.5765 15.5644 31.5597 15.3828 31.5494C15.2008 31.5384 15.0584 31.5533 15.0194 31.548C14.9998 31.5452 15.0677 31.5221 14.978 31.5122C14.7385 31.4867 14.2979 31.4636 14.0242 31.422C13.9272 31.4079 13.8079 31.3651 13.6999 31.3464C13.5343 31.3176 13.4516 31.3347 13.3558 31.3157C13.3223 31.3089 13.1197 31.2207 12.8553 31.1689C12.8057 31.1592 12.6329 31.2277 12.4759 31.035C12.456 31.0514 12.436 31.0679 12.4159 31.0843C11.5257 30.9016 11.3477 30.6444 10.9197 30.6525C10.3109 30.403 10.7545 30.509 10.6899 30.4751C10.6486 30.4534 10.445 30.389 10.4239 30.3789C10.3862 30.3614 10.4 30.3468 10.3581 30.3295C9.59233 30.0022 9.91829 30.1785 9.66826 30.0894C9.07729 29.8613 8.69732 29.5304 9.65785 30.0516C9.66237 30.0421 9.66689 30.0326 9.6714 30.0231C9.42218 29.9205 8.82371 29.5945 9.04959 29.6546C9.2179 29.7201 10.6689 30.4107 9.86526 29.9802C9.68498 29.8808 9.56893 29.8711 9.2858 29.6422C9.07971 29.5294 9.00323 29.5983 8.74285 29.4073C8.77204 29.4624 8.80167 29.5174 8.83176 29.5723C8.42495 29.3978 7.99488 29.0597 7.70673 28.8858C7.60802 28.8288 7.17723 28.7179 7.34886 28.6444C7.18174 28.5458 6.48528 27.9622 6.35235 27.8584C6.32071 27.8334 6.2187 27.8699 5.80423 27.4488C5.78149 27.4131 5.75893 27.3774 5.73655 27.3416C6.14905 27.6867 5.4813 27.0136 5.72422 27.1325C5.76033 27.2199 6.0564 27.5245 6.09635 27.5825C6.16306 27.6834 5.8748 27.4826 6.21559 27.7685C6.51308 27.8513 5.87502 27.3698 6.05343 27.3554C5.58995 27.0065 5.59396 26.9181 5.50297 26.8253C5.12012 26.4202 4.87636 26.1666 4.55381 25.7508C4.4479 25.6707 5.03719 26.4233 5.13226 26.4975C4.76892 26.2376 5.27233 26.7995 5.53994 26.9811C5.53899 27.0198 5.5382 27.0585 5.53756 27.0973C5.25256 26.795 4.98236 26.4948 4.69624 26.1988C4.68669 26.1717 4.67722 26.1446 4.66784 26.1175C4.73967 26.1772 4.81192 26.2361 4.8846 26.2943C4.6808 26.0212 4.74943 26.23 4.51445 25.8358C4.48111 25.845 4.44773 25.8541 4.41431 25.8631C4.14653 25.5179 3.89387 25.1616 3.65699 24.7952C3.47102 24.6471 3.05007 23.9154 3.20266 24.0048C3.03621 23.711 3.20958 24.0931 3.0326 23.8291C2.95556 23.714 2.82294 23.4775 2.81161 23.4083C2.89297 23.3973 3.09597 23.7451 3.20458 23.8217C3.15763 23.764 2.28354 22.1175 2.45431 22.2233C2.40597 22.0826 2.38823 22.1644 2.27515 21.9215C1.94986 21.2386 1.70545 20.0983 1.47034 19.5322C1.56681 20.2416 1.69692 20.429 1.86417 20.9473C1.93491 21.293 2.81045 23.2317 2.54739 22.8314C2.59098 22.8976 2.63502 22.9634 2.67952 23.0287C2.69303 23.1106 2.70725 23.1924 2.72219 23.2743C2.61556 23.0774 2.51278 22.8771 2.41507 22.6758C2.41471 22.6169 2.41471 22.5582 2.41505 22.4995C2.38895 22.4844 2.36287 22.4691 2.3368 22.4537C2.2951 22.369 2.25415 22.2839 2.21396 22.1982C2.24373 22.2144 2.27352 22.2305 2.30332 22.2464C2.24906 22.1115 2.19729 21.9771 2.14713 21.8412C2.13537 21.8878 2.12383 21.9345 2.11251 21.9814C1.85471 21.3463 1.95738 21.5542 1.87981 21.1806C1.79496 20.9104 1.89286 21.3834 1.6942 20.8159C1.48089 20.152 1.67913 20.5692 1.44345 19.7008C1.42684 19.6913 1.41023 19.6818 1.39364 19.6723C1.36279 19.4755 1.33574 19.2774 1.31294 19.0809C1.30064 19.1099 1.28842 19.1389 1.27628 19.1679C1.20212 18.7651 1.0925 18.208 1.1462 18.0648C1.16484 18.4815 1.28665 18.4586 1.29255 18.3501C1.29856 18.2305 1.16429 17.2436 1.16425 16.2493C1.1545 15.3885 1.24043 14.5325 1.28011 14.2411C1.38637 13.4374 1.55212 12.8489 1.69449 12.1205C1.48193 12.5853 1.20404 14.3341 1.16263 14.6681C1.15622 14.7008 1.04688 14.6811 1.15042 14.9048C1.10219 15.3104 1.08628 15.7648 1.09356 16.2493C1.09853 16.5825 1.11404 16.9209 1.13596 17.2716C1.10273 17.2475 1.06955 17.2232 1.03643 17.1988C1.06495 16.7436 0.965023 16.3214 1.01184 16.2493C1.01974 16.2373 1.03183 16.2356 1.04958 16.2456C1.04961 16.1397 1.05072 16.0339 1.0529 15.9285C1.03179 15.9281 1.01068 15.9276 0.989565 15.9272C0.992878 15.7675 0.99863 15.6088 1.00683 15.45C1.02792 15.4511 1.04901 15.4522 1.0701 15.4533C1.07692 15.3213 1.08543 15.1897 1.09561 15.0586C1.07568 15.0433 1.05577 15.0279 1.03588 15.0126C1.09403 14.6231 1.19143 13.2722 1.22299 13.8782C1.25178 13.6946 1.28385 13.5121 1.31915 13.3308C1.30388 13.3284 1.2886 13.3261 1.27333 13.3237C1.28651 13.2451 1.30026 13.1668 1.31481 13.0878C1.32304 13.1165 1.33135 13.1451 1.33974 13.1737C1.389 12.8084 1.54399 12.4931 1.56067 12.2485C1.50883 12.3988 1.45953 12.5492 1.41253 12.7007C1.49906 12.4109 1.61446 11.8598 1.63065 11.8128C1.67493 11.667 1.72927 11.5987 1.78265 11.4424C1.83134 11.3013 1.80249 11.3131 1.81222 11.287C2.10725 10.5362 2.12639 10.8752 2.12137 10.4683C2.15598 10.4393 2.19067 10.4105 2.22544 10.3819C2.22975 10.3263 2.2346 10.2702 2.23967 10.2143C2.33572 9.99616 2.43647 9.78125 2.54251 9.56822C2.48399 9.62812 2.42604 9.68829 2.36841 9.74922C2.51087 9.42008 2.63708 9.2961 2.65336 9.26593C2.70098 9.18037 2.69283 9.12546 2.70695 9.0986C3.42251 7.82805 3.01299 8.6112 3.49607 8.0601C3.59563 7.81768 3.41249 8.00913 3.3509 8.01402C3.55806 7.73693 3.60675 7.64005 3.82041 7.34467C3.87635 7.26807 3.95826 7.20191 3.99418 7.15433C4.02514 7.11305 4.09998 6.96656 4.1766 6.86844C4.30386 6.70462 4.49042 6.50092 4.67552 6.28614C4.82662 6.10552 5.29962 5.55834 5.66707 5.21244C5.82297 5.06415 5.8034 5.11634 5.84387 5.07839C5.86065 5.06264 5.96443 4.9279 6.06763 4.83614C6.90777 4.08599 7.86422 3.42924 8.85332 2.88285C9.54939 2.49741 10.2795 2.14068 11.0328 1.87129C11.1927 1.81455 11.1151 1.86456 11.1852 1.84061C11.2094 1.83276 11.2257 1.78649 11.4804 1.71801C11.5725 1.69368 11.4763 1.75157 11.5656 1.72413C11.6091 1.71127 11.6177 1.67306 11.8696 1.58988C12.3296 1.44047 12.5942 1.42524 12.6349 1.41317C12.7132 1.39192 12.684 1.37153 12.7887 1.34629C13.3026 1.22422 13.7361 1.14424 14.2011 1.07982C14.4181 1.02966 15.9285 0.925393 16.0132 0.946787C16.1885 0.9549 16.0468 1.00509 16.2261 1.00896C16.2379 1.00925 16.251 1.00937 16.2657 1.00929C16.3327 0.995483 16.3997 0.982109 16.4669 0.969168C16.3869 0.959927 16.3066 0.9513 16.2261 0.943295C16.1998 0.94068 16.1735 0.938131 16.1471 0.935649C16.1732 0.937089 16.1995 0.938257 16.2261 0.939204C16.4994 0.948606 16.7924 0.936905 16.9888 0.947704C17.0288 0.949008 17.3965 0.995948 17.5827 1.01091C17.5025 1.01428 17.4222 1.01826 17.342 1.02286C17.3695 1.03372 17.3969 1.04465 17.4242 1.05566C17.7965 1.07095 18.1933 1.11684 18.5705 1.17718C18.7076 1.19937 18.6579 1.21308 18.796 1.23693C19.5934 1.38936 19.4195 1.26116 20.1355 1.61331C19.8868 1.5222 18.9416 1.3445 18.8039 1.32298C18.7094 1.30142 18.3556 1.10506 18.4715 1.2696C17.7014 1.16589 18.382 1.16771 17.6545 1.10713C17.6674 1.12616 17.6801 1.14521 17.6928 1.16428C17.4399 1.15136 17.2524 1.14795 17.0995 1.10776C17.0584 1.16482 16.6423 1.13577 16.2261 1.12962C16.0403 1.1263 15.857 1.12646 15.7115 1.13318C15.0294 1.16264 14.2646 1.26326 13.6009 1.38509C13.3723 1.42666 13.2373 1.42049 13.2086 1.4262C13.167 1.43478 13.055 1.48826 12.972 1.50684C12.6607 1.56705 11.7134 1.77929 11.5123 1.9405C13.0303 1.44016 14.6263 1.18754 16.2261 1.18813C16.5166 1.18815 16.8035 1.19628 17.0918 1.21259C16.8594 1.13675 18.7611 1.3243 18.8544 1.37373C18.9425 1.39116 18.8631 1.40587 18.8891 1.41223C19.0822 1.45891 19.2548 1.45245 19.3172 1.46545C19.3645 1.47538 19.4559 1.51383 19.6225 1.55164C19.6531 1.55862 19.6662 1.54074 19.699 1.54839C19.9159 1.59944 20.1294 1.655 20.3452 1.7159C20.3583 1.71981 20.4044 1.76386 20.4585 1.77972C20.5127 1.79554 20.5748 1.78311 20.5885 1.78715C20.7594 1.83809 21.0465 1.95203 21.2062 2.00887C21.2618 2.02839 21.2305 1.99421 21.2928 2.01651C21.4836 2.08597 21.4065 2.10246 21.6452 2.18151C21.725 2.20855 21.7321 2.17572 21.8803 2.23987C21.9851 2.2857 21.9514 2.33506 21.9673 2.34384C21.9891 2.35438 22.3701 2.46748 22.4708 2.55703C22.1742 2.53207 22.7469 2.68981 22.7394 2.64175C22.8757 2.71894 23.0108 2.79827 23.1442 2.87946C23.1963 2.89438 23.2484 2.9096 23.3004 2.92511C23.8316 3.26631 24.1744 3.44006 24.6797 3.79782C24.7055 3.81353 25.1164 4.13447 25.0864 4.13367C24.8204 3.97056 24.5637 3.79832 24.423 3.64953C24.0975 3.55005 24.1345 3.48156 23.6712 3.22567C23.5153 3.14151 23.4918 3.15789 23.4739 3.14814C22.8709 2.81632 21.8618 2.38433 21.448 2.16275C21.3195 2.13517 21.7543 2.30808 21.5791 2.25695C21.4977 2.1845 19.2006 1.5618 19.9535 1.68526C19.8764 1.66797 19.799 1.65127 19.7215 1.63518C19.6266 1.6923 19.2474 1.59156 19.3065 1.52436C19.2664 1.53248 19.2267 1.54082 19.1871 1.54933C19.1125 1.54832 19.026 1.53882 18.9053 1.52136C18.582 1.46 17.1248 1.26352 16.2261 1.28062C15.8445 1.27934 15.5695 1.29361 15.526 1.29869C15.5235 1.3175 15.521 1.33631 15.5186 1.35512C15.7541 1.34822 15.9895 1.34429 16.2261 1.34453C17.2049 1.34653 18.1908 1.41397 19.2346 1.67105C19.2003 1.64613 19.166 1.62136 19.1314 1.59669C19.6499 1.7239 20.16 1.87881 20.6578 2.05987C20.1148 1.91802 19.2424 1.73619 18.667 1.62002C18.5644 1.59849 18.6441 1.58678 18.6208 1.57998C18.5597 1.56258 18.4862 1.59263 18.2634 1.56573C18.0407 1.53597 17.4793 1.45067 17.4275 1.4497C17.3279 1.44294 17.0534 1.47317 16.8849 1.46582C16.6624 1.45602 16.8127 1.43204 16.768 1.42965C16.5827 1.42005 16.4155 1.43234 16.2693 1.4297C16.2558 1.42945 16.2413 1.42903 16.2261 1.42849C15.997 1.41879 15.5914 1.3898 15.4546 1.47082C15.6081 1.46648 15.7616 1.4645 15.9159 1.46487C15.0856 1.51294 14.4195 1.47944 13.6201 1.69573C13.4536 1.82009 14.1165 1.69161 13.5615 1.8295C13.6629 1.80952 13.7647 1.79058 13.8669 1.7727C13.8878 1.74942 13.9087 1.72618 13.9298 1.70298C14.1089 1.68916 14.2868 1.67879 14.4661 1.67151C14.4134 1.66017 14.3606 1.6491 14.3077 1.63831C14.9361 1.54085 15.5796 1.49442 15.8018 1.58359C15.8142 1.56047 15.8266 1.53736 15.8391 1.51426C15.9593 1.51679 16.092 1.51539 16.2261 1.51368C16.7493 1.50497 17.2837 1.50378 17.1465 1.59551C17.1747 1.59053 17.203 1.58563 17.2313 1.58081C17.584 1.63258 17.4365 1.56981 17.5703 1.57507C17.608 1.57294 18.2939 1.68067 17.9845 1.68184C18.6467 1.79675 18.4581 1.65729 18.6438 1.67966C19.0619 1.8019 19.8376 1.89467 19.4985 1.9115C19.5604 1.92914 19.6221 1.94717 19.6836 1.96559C19.9055 1.94415 20.0886 2.07756 20.2993 2.16706C20.373 2.19007 20.4465 2.21364 20.5197 2.23777C20.5762 2.22938 20.6331 2.22144 20.6902 2.21384C21.3448 2.55318 21.2329 2.1837 21.453 2.55002C21.3989 2.54653 21.3448 2.54336 21.2907 2.54049C21.1733 2.50521 21.056 2.47165 20.9379 2.43943C21.4012 2.60491 21.8566 2.79431 22.3009 3.00625C22.8326 3.33799 23.1863 3.42951 23.7501 3.83621C23.8091 3.86374 23.8681 3.89168 23.9268 3.92003C23.8381 3.93683 23.6318 3.79599 24.0116 4.06737C24.0219 4.12447 23.7544 3.96119 23.6481 3.8602C23.6226 3.83539 23.8917 3.95905 23.6087 3.78764C23.4144 3.67423 23.7443 3.91903 23.1672 3.57198C23.184 3.59319 23.2008 3.61444 23.2175 3.63571C23.1539 3.60006 23.09 3.56485 23.0261 3.53027C22.9806 3.47831 22.9346 3.42658 22.888 3.37507C22.7231 3.33018 22.6186 3.32895 22.2795 3.1587C22.3793 3.18863 22.2736 3.0842 22.1003 3.00803C22.0932 3.0241 22.086 3.04016 22.0789 3.05622C21.6559 2.88491 21.8208 2.89907 21.4536 2.79591C21.4233 2.76913 21.3928 2.74245 21.3622 2.71587C21.1492 2.69018 20.4181 2.49201 20.5747 2.45363C20.3468 2.46789 19.9289 2.31163 19.7821 2.20715C19.7654 2.22094 19.7488 2.23476 19.7322 2.2486C19.6455 2.23063 19.5586 2.21343 19.4715 2.19703C19.4257 2.17566 19.3797 2.15451 19.3335 2.13358C19.2697 2.13041 19.2059 2.12766 19.1421 2.12533C19.1085 2.10055 19.0749 2.07594 19.0411 2.05141C18.9379 2.05248 18.8348 2.05464 18.7318 2.0579C18.6735 2.03348 18.6148 2.0094 18.5558 1.98568C18.5424 2.01778 17.9392 1.93948 17.7697 1.90119C17.7176 1.90633 17.666 1.9118 17.6146 1.91755C17.5916 1.89788 17.5685 1.87826 17.5453 1.85869C17.5063 1.86914 17.4674 1.87974 17.4286 1.89049C17.3428 1.86945 17.2566 1.84916 17.1699 1.82963C16.8072 1.89329 16.8023 1.82166 16.7201 1.81859C16.6298 1.81587 16.408 1.82997 16.2261 1.84521C16.1047 1.85511 16.002 1.8647 15.9676 1.86421C15.8819 1.86301 15.8398 1.83352 15.7705 1.83273C14.6268 1.84051 15.1021 1.90806 14.8758 1.93527C14.7547 1.95373 14.6643 1.9346 14.5561 1.9502C14.3694 1.96837 13.4489 2.15836 13.3978 2.1722C13.3196 2.18266 13.4755 2.01312 13.2302 2.09913C13.2359 2.16941 12.6859 2.2218 12.9581 2.26199C12.7374 2.30428 12.517 2.35191 12.2976 2.40486C12.3451 2.48065 12.0645 2.50116 11.7777 2.6C11.3682 2.72988 10.5016 3.14721 10.5004 3.05777C10.4141 3.11727 10.3288 3.17759 10.2445 3.23868C9.59676 3.50673 9.0072 3.86588 8.42617 4.24534C6.69442 5.36399 5.08563 6.98804 4.00073 8.737C3.94827 8.82086 3.93122 8.79385 3.89386 8.85453C3.69135 9.17027 3.25315 10.0411 3.04635 10.5227C2.97752 10.6762 2.92104 10.7409 2.89947 10.7898C2.82704 10.9558 2.87771 10.93 2.84607 11.007C2.79261 11.1273 2.52654 11.77 2.45675 12.0009C2.42009 12.1137 2.40854 12.2564 2.36267 12.3878C2.35876 12.3991 2.33555 12.3697 2.33233 12.3794C2.26178 12.6234 2.32734 12.4828 2.30374 12.5654C2.13827 13.1527 2.00978 13.7972 1.92228 14.4541C1.89989 14.6175 1.85286 14.8671 1.83934 15.0077C1.83425 15.0615 1.86456 14.9668 1.84811 15.1527C1.84273 15.2164 1.81142 15.2362 1.80477 15.3084C1.7777 15.6219 1.87035 15.7255 1.78752 15.992C1.78692 16.0698 1.78724 16.1565 1.78874 16.2493C1.7937 16.7735 1.85795 17.4782 1.90611 17.8749C1.91877 17.9857 1.90789 18.0417 1.9219 18.147C1.93185 18.2217 1.97704 18.3486 1.99531 18.4642C2.01357 18.5804 2.01769 18.7682 2.06124 18.9896C2.10611 19.222 2.18736 19.5088 2.1998 19.5603C2.21463 19.6232 2.18979 19.6602 2.20566 19.7229C2.25133 19.9134 2.42341 20.4104 2.50594 20.648C2.5924 20.905 2.63274 21.0626 2.66425 21.1496C2.69363 21.2298 2.75484 21.3142 2.76894 21.3505C2.79098 21.4072 2.76587 21.4323 2.79429 21.5044C2.84105 21.622 2.90825 21.7349 2.98311 21.9088C4.33109 25.0442 6.76543 27.617 9.72454 29.1342C10.0559 29.3021 10.2525 29.374 10.7523 29.5935C10.9555 29.6806 10.8568 29.6769 11.0199 29.7339C11.0928 29.7588 11.0839 29.7274 11.1754 29.7605C11.5778 29.9071 12.0496 30.078 12.2286 30.1277C12.2997 30.1479 12.3888 30.1424 12.5352 30.1807C13.6237 30.4703 14.9502 30.6629 16.166 30.6574C16.1857 30.6573 16.2057 30.6573 16.2261 30.6572C16.8701 30.6587 17.8026 30.5771 18.5052 30.4581C20.5166 30.1469 22.5826 29.3102 24.1226 28.2771C26.4623 26.7344 28.3038 24.5025 29.4384 21.9536C28.868 23.1297 27.9359 24.6487 26.9575 25.721C24.368 28.6778 20.2961 30.6173 16.2261 30.5804C15.9629 30.5806 15.7027 30.5736 15.4434 30.5596C13.9505 30.4931 12.0874 30.0882 10.5975 29.4163C10.5297 29.3865 10.3796 29.3462 10.2351 29.2769C10.2037 29.2633 9.84166 29.0438 9.71679 28.9772C9.80201 29.1057 9.33889 28.7904 9.19031 28.7046C9.00097 28.6005 8.58997 28.4032 8.18191 28.0994C7.81339 27.8219 7.93662 27.869 7.91626 27.8535C7.79135 27.7493 7.71874 27.7526 7.61603 27.6813C7.15705 27.4358 5.28001 25.5891 4.88637 24.9641C4.77171 24.8137 4.79276 24.7913 4.76733 24.7573C4.70041 24.6671 4.58246 24.5546 4.47936 24.406C4.29265 24.1385 4.11564 23.8073 4.02332 23.6539C3.79786 23.2916 3.38267 22.5897 3.15943 22.0789C3.0956 21.9357 3.12791 21.9321 3.0997 21.8671C2.97145 21.5839 2.65351 20.835 2.54477 20.4612C2.35904 19.8598 2.22901 19.2229 2.11544 18.5942C2.12226 18.5519 2.12926 18.5096 2.13645 18.4674C2.11242 18.4061 2.08898 18.3458 2.06583 18.2844C1.97707 17.6131 1.9196 16.9333 1.91209 16.2493C1.90759 15.8374 1.921 15.4312 1.95584 15.0273C1.96282 14.9042 2.05926 14.2948 2.0772 14.1953C2.08931 14.1116 2.06837 14.0235 2.09386 13.899C2.13041 13.7254 2.1643 13.9001 2.19762 13.6134C2.20715 13.5365 2.16572 13.6051 2.18718 13.4506C2.18587 13.3977 2.40758 12.4213 2.4326 12.3716C2.45993 12.2859 2.53897 12.2259 2.54669 12.2042C2.58714 12.0915 2.54262 12.0833 2.56236 12.0052C2.6205 11.7732 2.75183 11.4896 2.76447 11.4535C2.90734 11.009 3.21933 10.1896 3.4674 9.76353C3.50093 9.7044 3.52721 9.72712 3.53361 9.71704C3.57498 9.65214 3.56321 9.59215 3.5968 9.5272C3.77611 9.17613 4.11503 8.65989 4.34182 8.33667C4.36757 8.29927 4.40606 8.20919 4.45381 8.14324C4.7262 7.77245 4.66613 7.91353 4.6817 7.89244C4.72053 7.84434 4.75802 7.73722 4.85634 7.60467C5.10514 7.2602 5.63856 6.64363 5.96085 6.32202C6.20047 6.07932 6.22521 6.11195 6.24116 6.09631C6.27615 6.064 6.34943 5.94924 6.51142 5.79381C6.825 5.4969 6.81025 5.55451 6.94274 5.43697C6.95421 5.42742 6.91508 5.42182 7.06393 5.29265C7.34844 5.03871 8.05039 4.54941 8.39252 4.33019C8.52297 4.24409 8.53884 4.20098 8.67461 4.11521C8.88865 3.97647 9.40284 3.72061 9.44358 3.70112C9.4547 3.69513 9.46445 3.65347 9.53032 3.61843C9.60277 3.57993 9.68196 3.55733 9.73632 3.52944C10.0444 3.36716 10.5707 3.07401 10.4646 3.24585C10.5547 3.17515 10.6466 3.10511 10.7386 3.03646C11.4153 2.76149 12.0863 2.52937 12.7887 2.35003C12.9463 2.30995 13.0837 2.3008 13.2179 2.27094C13.3516 2.23758 13.9405 2.09475 14.0429 2.0818C14.2191 2.04353 15.2436 1.93484 15.3732 1.93923C15.6243 1.92911 15.8661 1.97009 15.9679 1.95925C16.0495 1.95063 15.9733 1.92484 16.1296 1.9159C16.1597 1.91426 16.1921 1.91328 16.2261 1.91289C16.4992 1.90848 16.8672 1.94972 16.9395 1.95354C16.9743 1.95566 16.9099 1.92905 17.2395 1.94899C17.4169 1.96069 17.5094 1.99233 17.5732 1.99806C17.5934 2.00056 17.5657 1.95755 17.9161 2.00193C18.1572 2.03411 18.2548 2.07828 18.2799 2.0817C18.3175 2.08737 18.4127 2.07013 18.5648 2.09604C18.9198 2.15328 19.5533 2.32487 19.8794 2.41716C19.9427 2.43488 19.9312 2.39198 20.1831 2.46668C20.3628 2.52124 20.3227 2.54054 20.3895 2.56175C20.4945 2.59567 20.6652 2.61081 20.8975 2.69191C21.2104 2.74857 23.2773 3.75724 23.3537 3.86388C23.4196 3.90929 23.4991 3.95673 23.5248 3.9906C23.488 3.98632 23.4512 3.98219 23.4144 3.97822C23.1384 3.75665 23.2297 3.88093 23.1473 3.8385C23.0282 3.77548 22.5841 3.53436 22.4668 3.49462C22.4255 3.48013 22.5007 3.55179 22.2833 3.46609C22.0501 3.3756 21.9709 3.27867 21.848 3.31094C21.5565 3.08876 21.2039 3.05301 21.5748 3.22814C21.801 3.28823 23.7709 4.35303 24.1187 4.65657C24.424 4.86526 24.9924 5.26403 25.3328 5.56756C25.5373 5.74056 26.0144 6.19578 25.9631 6.20818C26.1288 6.37746 25.9788 6.17233 26.0184 6.20291C26.1053 6.26364 26.5981 6.81835 26.688 6.92544C27.1543 7.43413 27.7217 8.10704 28.0366 8.704C28.0102 8.68374 27.9839 8.66361 27.9575 8.6436C27.8627 8.52653 27.4845 7.93831 27.3909 7.91031C28.0006 8.72511 28.5208 9.60639 28.9383 10.5337C28.9842 10.492 29.4537 11.6689 29.4396 11.7362C29.4114 11.7224 29.3832 11.7087 29.355 11.6952C29.1931 10.9967 29.1057 11.0991 28.9732 10.6366C28.8947 10.4583 28.885 10.5273 28.8389 10.4432C28.3631 9.6166 28.9074 10.3929 28.5469 9.75637C28.6022 9.97511 28.3074 9.45604 28.163 9.23177C28.136 9.17765 27.7199 8.49609 27.6604 8.42159C27.3601 7.98037 26.7679 7.28378 26.4268 6.8794C26.1458 6.57098 25.9564 6.43534 25.6766 6.18251C25.4624 5.99236 25.5401 6.02905 25.4402 5.93826C25.2285 5.74916 25.1052 5.75264 25.0379 5.54955C24.8805 5.43804 24.721 5.32994 24.5594 5.22531C24.57 5.2113 24.5807 5.19729 24.5913 5.18327C24.4947 5.11018 24.3975 5.03855 24.2992 4.96806C24.2601 4.96156 24.221 4.95525 24.1819 4.94912C23.8816 4.71086 24.0357 4.76773 24.0045 4.68577C23.9374 4.63641 23.8698 4.58763 23.8018 4.53943C23.7269 4.53639 23.6521 4.53401 23.5776 4.53227C23.2667 4.33308 22.9477 4.14627 22.6221 3.97276C22.6091 3.94619 22.5959 3.91962 22.5826 3.89307C22.5739 3.90828 22.5652 3.9235 22.5565 3.93871C21.9987 3.6553 21.4229 3.4105 20.8325 3.2058C20.669 3.17151 21.5953 3.5442 21.6599 3.5841C22.0479 3.74577 23.0478 4.2441 23.0139 4.30668C23.2661 4.38964 23.9261 4.82255 24.0898 5.01301C23.7889 4.79791 23.4794 4.595 23.1623 4.40498C23.162 4.42908 23.1616 4.45317 23.1612 4.47724C22.807 4.17425 22.7413 4.14347 22.2848 4.00201C22.2969 3.97667 22.3089 3.95132 22.321 3.92597C21.9854 3.86428 21.5154 3.48286 21.4524 3.58943C21.2943 3.51351 21.1343 3.44047 20.9724 3.37038C20.6076 3.26627 21.1455 3.50368 19.7383 3.05447C19.6402 3.02611 19.6684 3.00131 19.5194 2.96625C19.4763 2.95733 19.2202 2.93466 18.7472 2.84052C18.6733 2.82606 18.6724 2.79882 18.5956 2.78187C18.4178 2.74128 18.0532 2.74273 18.2276 2.68114C17.5174 2.5609 17.8032 2.67331 17.5797 2.67594C17.4311 2.68041 17.4652 2.63259 17.3363 2.63342C17.177 2.63775 17.2887 2.68686 16.657 2.63763C16.7283 2.63636 16.7994 2.63564 16.8705 2.63546C16.8355 2.6199 16.8003 2.60447 16.765 2.58918C16.4013 2.6105 16.4355 2.56509 16.2632 2.64162C16.2508 2.63995 16.2384 2.63837 16.2261 2.63687C15.9759 2.60701 15.7528 2.60862 15.4097 2.63425C14.7103 2.69945 15.0796 2.74427 14.2725 2.73192C14.1473 2.76593 14.021 2.80197 13.8964 2.83961C13.6815 2.84399 13.8428 2.77058 13.5291 2.82264C13.7889 2.85432 13.1251 2.95857 13.0344 3.06095C13.0188 3.04662 13.0032 3.03232 12.9875 3.01805C12.9188 3.03481 12.8507 3.05198 12.7819 3.0699C12.7852 3.08359 12.7886 3.09729 12.7919 3.11099C12.6981 3.12454 12.6044 3.13906 12.5109 3.15456C12.4465 3.18731 12.3826 3.22051 12.3191 3.25416C12.1999 3.25918 12.0795 3.26611 11.9592 3.27462C11.8888 3.29563 11.8186 3.31721 11.7486 3.33934C11.7774 3.35157 11.8062 3.36389 11.8348 3.3763C11.7437 3.39996 11.6529 3.42456 11.5623 3.45009C11.6768 3.44591 11.6252 3.50455 11.3525 3.6076C11.1288 3.69549 11.3522 3.52429 10.8854 3.75135C10.8536 3.76891 10.8112 3.83501 10.3746 4.05058C9.85383 4.31801 10.0928 4.16057 9.99868 4.20597C9.98018 4.21522 9.83381 4.32043 9.68912 4.405C9.60696 4.4528 9.51721 4.48016 9.5063 4.48648C9.45585 4.51655 9.45577 4.55054 9.3864 4.59248C9.2103 4.69846 8.96733 4.83288 8.79974 4.94554C8.72337 4.99654 8.66176 5.05937 8.62804 5.08264C8.57569 5.11854 8.49421 5.14256 8.44167 5.17976C8.2463 5.31658 8.01463 5.60389 7.85261 5.57605C7.74207 5.80334 7.29155 6.00863 7.36778 6.04442C6.86529 6.40403 5.84388 7.67217 5.7903 7.5652C5.65425 7.90146 5.61506 7.82855 5.52626 7.94373C5.4286 8.07312 5.49652 8.01938 5.41802 8.12131C5.23584 8.35961 5.06298 8.58964 4.89872 8.83922C4.90985 8.79041 4.92128 8.74159 4.933 8.69276C4.75472 8.95244 4.84726 8.88345 4.68401 9.15932C4.39254 9.67107 4.49463 9.44335 4.41009 9.49528C4.45648 9.49539 4.11847 10.1029 4.08557 10.1661C4.06415 10.2027 4.09328 10.0095 3.92301 10.4026C3.94886 10.3891 3.97471 10.3756 4.00062 10.3623C3.8921 10.525 3.70782 11.0219 3.67111 11.1024C3.65318 11.1384 3.43836 11.2919 3.4729 11.5214C3.44801 11.5381 3.4231 11.5551 3.39832 11.5719C3.34133 11.7896 3.28968 12.009 3.24363 12.2291C3.20297 12.2538 3.16236 12.2788 3.12182 12.3041C3.10129 12.3724 3.08128 12.4409 3.0618 12.5096C3.10168 12.4716 3.14171 12.434 3.18189 12.3968C3.04285 12.8144 2.96979 13.3456 2.8598 13.4158C2.85735 13.5123 2.85624 13.6073 2.85598 13.7029C2.81374 13.757 2.77181 13.8118 2.73021 13.8671C2.66511 14.3021 2.68818 14.3111 2.68365 14.6119C2.66067 14.5974 2.63772 14.5829 2.61479 14.5682C2.62101 14.7936 2.61469 15.1944 2.60321 15.5141C2.59652 15.6646 2.55528 15.9228 2.55804 15.9591C2.55949 15.982 2.61022 16.1321 2.62104 16.2493C2.62728 16.3184 2.61928 16.3761 2.5768 16.3909C2.635 16.9126 2.60348 17.1424 2.62029 17.3544C2.6324 17.4916 2.66539 17.5506 2.68434 17.7049C2.71171 17.926 2.72871 18.1486 2.74955 18.2746C2.76151 18.3465 2.79036 18.3563 2.79907 18.406C2.84196 18.641 2.79098 18.5078 2.83737 18.7551C2.842 18.7782 2.90734 18.9512 2.94755 19.1549C2.96891 19.2687 3.00311 19.5682 3.01036 19.5937C3.04078 19.7069 3.08478 19.598 3.11037 20.0071C3.12066 19.992 3.13098 19.977 3.14132 19.962C3.3127 20.4263 3.28474 20.5182 3.31123 20.6151C3.31492 20.6275 3.37683 20.7338 3.39793 20.8028C3.43336 20.9193 3.41976 20.9769 3.42779 21.0029C3.45574 21.0949 3.58534 21.3889 3.63899 21.5942C3.70578 21.5202 4.03454 22.1706 4.01785 22.3624C4.09518 22.4696 4.17388 22.5753 4.25387 22.6794C4.26615 22.7393 4.27905 22.7996 4.29231 22.8597C4.32504 22.8825 4.35782 22.9052 4.39066 22.9277C4.45032 23.1115 4.51383 23.2941 4.58208 23.4769C4.62131 23.4668 4.6605 23.4566 4.69964 23.4463C4.72404 23.4936 4.74872 23.5407 4.77368 23.5877C4.77023 23.6391 4.76708 23.6907 4.76424 23.7424C4.8057 23.795 4.84751 23.8472 4.88969 23.8991C4.91734 23.9004 4.94498 23.9015 4.97259 23.9026C5.19755 24.1788 4.91388 24.1611 5.4747 24.592C5.52576 24.6862 5.57803 24.78 5.63149 24.8734C5.77283 24.9123 5.87668 25.1166 6.00387 25.2459C6.09343 25.3368 6.11367 25.3092 6.23096 25.4364C6.34896 25.563 6.32182 25.5802 6.3308 25.5903C6.42658 25.6945 6.52152 25.7507 6.59044 25.8282C6.60091 25.8398 6.60092 25.895 6.69379 25.9896C6.78707 26.0838 6.87248 26.1098 7.0116 26.2491C7.08319 26.3202 7.0831 26.3638 7.14806 26.4258C7.45965 26.7233 7.89404 26.8608 8.03334 27.2077C8.10546 27.2336 8.58062 27.4687 8.76507 27.5926C9.0517 27.7886 8.91959 27.7474 9.03294 27.8274C9.04956 27.8384 9.14534 27.8856 9.39623 28.0348C9.44125 28.0614 9.44155 28.0366 9.44817 28.0401C9.74093 28.2136 10.3212 28.531 10.6627 28.6832C10.6934 28.697 10.8757 28.7147 11.1191 28.9005C11.5451 29.0138 12.2907 29.4029 12.8802 29.4533C12.9583 29.4711 13.0479 29.5148 13.0828 29.5222C13.3844 29.582 13.2838 29.5047 13.949 29.7208C13.8988 29.6783 14.0649 29.6775 14.2895 29.7121C14.6292 29.7619 14.379 29.7919 14.6554 29.8203C14.6574 29.8029 14.6594 29.7855 14.6613 29.7681C15.2896 29.8807 15.424 29.814 16.0603 29.8278C16.1115 29.8284 16.1682 29.8306 16.2261 29.8336C16.4286 29.8444 16.6438 29.8614 16.6864 29.86C16.7081 29.8597 16.9554 29.8066 16.9799 29.8044C17.115 29.7956 17.1924 29.8097 17.3086 29.8008C17.6915 29.7731 18.1408 29.6548 18.0713 29.7649C18.1737 29.7298 18.2741 29.6937 18.376 29.6562C18.7903 29.6982 19.0532 29.4896 19.157 29.5731C19.2226 29.5369 19.2876 29.5002 19.3521 29.463C21.0198 29.0822 22.6145 28.378 24.0261 27.4009C24.066 27.3387 24.6701 26.8998 24.7004 26.8757C24.8521 26.7832 24.7542 26.9588 25.0218 26.715C25.0319 26.6649 25.0417 26.6149 25.0512 26.5649C25.3847 26.261 25.2415 26.4268 25.389 26.3238C25.4415 26.2705 25.4072 26.2688 25.4799 26.1989C25.8812 25.827 26.6393 24.9995 26.9931 24.5176C27.066 24.4217 27.0732 24.4499 27.0959 24.4201C27.1578 24.3376 27.255 24.1573 27.3725 23.988C28.1192 22.9523 28.9234 21.3175 29.2884 20.0823C29.3144 19.999 29.3437 19.9961 29.3611 19.9395C29.3852 19.8613 29.4111 19.6781 29.4339 19.5957C29.4557 19.5179 29.4883 19.4725 29.5106 19.3886C29.6145 19.0033 29.6773 18.4724 29.7924 18.059C29.8039 18.0258 29.9644 17.5898 29.9708 17.5803C30.0183 17.5235 30.0524 17.9347 30.1709 17.277C30.1728 17.8734 30.2997 17.7063 30.3923 16.9217C30.3861 17.3174 30.3639 17.7096 30.325 18.1039C30.3364 18.1059 30.3477 18.108 30.3591 18.11C30.4613 17.7591 30.519 17.4035 30.5484 16.8522C30.5584 16.8698 30.5683 16.8874 30.5782 16.905C30.6116 17.3965 30.5596 17.9852 30.5757 18.3653C30.7085 17.83 30.8113 17.2816 30.8829 16.7285C30.8905 16.7564 30.8979 16.7845 30.9053 16.8125C30.9202 17.0791 30.8882 17.664 30.8811 17.8872C30.8613 18.7436 31.0172 17.1514 31.0315 17.4158C30.9599 18.3168 30.8061 19.2108 30.5718 20.0832C30.6891 20.1481 31.2901 16.7038 31.3011 16.726C31.2993 17.0129 31.2891 17.304 31.2709 17.5914C31.3088 17.4658 31.3453 17.3391 31.3801 17.2112C31.3863 17.2474 31.3924 17.2837 31.3984 17.3199C31.3852 17.8102 31.3482 18.3022 31.2872 18.7918C31.5019 17.3051 31.4829 16.6149 31.7032 16.2493C31.7086 16.2907 31.7138 16.3321 31.7188 16.3735C31.6006 16.7028 31.5469 18.2423 31.4015 19.0564C31.4746 18.8986 31.5513 18.1767 31.5874 18.0262C31.599 17.9836 31.6081 18.1378 31.6334 18.039C31.7109 17.7824 31.8193 16.6568 31.8507 16.822C31.9001 16.9285 31.7634 18.7551 31.6656 19.1049C31.8675 18.2888 31.9696 17.4257 32.0479 16.5823C32.1179 17.1159 32.2095 17.6046 32.077 18.5855C32.1016 18.8972 32.3772 16.81 32.37 16.7599C32.3851 17.1227 32.3876 17.4934 32.378 17.8586C32.4013 17.5511 32.416 17.2388 32.4217 16.9305C32.4305 16.9299 32.4394 16.9294 32.4482 16.9288C32.4535 17.7331 32.4512 18.4778 32.2711 19.3897C32.324 19.3706 32.4191 18.8203 32.4541 18.5543ZM26.5584 7.18543C26.54 7.22232 26.356 7.00489 26.2462 6.88766C26.2575 6.91008 26.2688 6.93251 26.28 6.95496C26.0565 6.69594 25.607 6.24233 25.5373 6.28307C25.3528 6.12471 25.4753 6.14995 25.4223 6.09137C25.4015 6.06797 25.1401 5.8843 24.9727 5.68695C24.9259 5.64839 24.879 5.61018 24.8317 5.57226C24.8071 5.58398 24.7826 5.59576 24.7582 5.60759C24.7113 5.53175 24.6635 5.45615 24.6147 5.38083C25.3176 5.91755 25.9694 6.52251 26.5576 7.18444C26.5579 7.18477 26.5581 7.1851 26.5584 7.18543ZM19.0716 2.83202C18.7613 2.74974 18.276 2.6518 18.3642 2.73405C18.5656 2.76206 18.7657 2.79445 18.9644 2.83114C18.9998 2.83124 19.0359 2.83159 19.0716 2.83202ZM4.50892 23.478C4.59563 23.7425 4.77789 23.9215 5.01029 24.2682C5.02133 24.2596 5.03238 24.251 5.04342 24.2424C4.91564 24.1241 4.67969 23.7391 4.50892 23.478ZM30.0911 14.317C30.0942 14.3774 30.0969 14.4379 30.0992 14.4984C29.9932 14.2647 30.0403 14.2166 29.9886 13.9427C29.9854 13.9263 29.9694 13.9349 29.9683 13.9291C29.956 13.8625 29.9655 13.7973 29.9543 13.7371C29.9323 13.6209 29.8946 13.5316 29.8519 13.3265C29.8185 13.1683 29.8497 13.1598 29.8363 13.1045C29.8257 13.0563 29.6252 12.614 29.5738 12.3094C29.5071 11.7152 30.1292 14.1254 30.0911 14.317ZM30.1599 16.0591C30.1588 16.0009 30.1574 15.9427 30.1556 15.8847C30.21 16.0583 30.1963 15.7056 30.1796 15.447C30.2305 15.4535 30.2332 16.0006 30.2445 16.2493C30.2167 16.1854 30.1885 16.122 30.1599 16.0591ZM28.2705 9.03143C28.3918 9.2253 28.319 9.2235 28.2989 9.2243C28.2624 9.16177 28.2255 9.09954 28.1881 9.03763C28.2155 9.0355 28.243 9.03343 28.2705 9.03143ZM29.0825 10.5475C29.0175 10.498 28.7924 10.0572 28.6795 9.85124C28.6747 9.84218 28.7249 9.88892 28.6462 9.74263C28.6242 9.69728 28.3148 9.30897 28.4482 9.35753C28.6783 9.74323 28.8901 10.1404 29.0822 10.5469C29.0823 10.5471 29.0824 10.5473 29.0825 10.5475ZM29.2554 11.0189C29.2085 10.937 29.161 10.8559 29.1126 10.7751C29.1115 10.7232 29.1101 10.6711 29.1084 10.619C29.1557 10.7147 29.2018 10.8111 29.2468 10.9076C29.2498 10.9447 29.2527 10.9818 29.2554 11.0189ZM25.1143 27.1839C25.0843 27.1817 25.0543 27.1793 25.0244 27.1768C24.9525 27.2207 24.6819 27.5426 24.7955 27.4772C24.9034 27.3809 25.0097 27.2832 25.1143 27.1839ZM26.4231 26.037C26.4901 25.9823 26.5567 25.9269 26.6228 25.8708C26.6643 25.7744 26.7045 25.6777 26.7435 25.581C26.4435 25.8856 26.1027 26.1847 26.2276 26.2063C26.1584 26.2758 26.0886 26.3445 26.018 26.4125C26.0474 26.3241 26.0303 26.3234 25.8263 26.4789C25.8264 26.5605 25.6127 26.7193 25.3917 26.9261C25.561 26.7852 25.727 26.6404 25.8897 26.4916C25.8969 26.4992 25.9041 26.5069 25.9113 26.5145C25.5472 26.8467 26.0459 26.4821 26.2417 26.2222C26.2695 26.2142 26.2972 26.206 26.325 26.1977C26.3581 26.1443 26.3908 26.0907 26.4231 26.037ZM2.25681 14.2263C2.23772 14.285 2.21899 14.344 2.20063 14.4032C2.30771 14.655 2.23513 14.1611 2.40303 13.8409C2.30094 13.938 2.39801 13.4253 2.40092 13.3957C2.3616 13.4488 2.32261 13.5023 2.28391 13.5563C2.26963 13.7792 2.26031 14.0045 2.25681 14.2263ZM2.02132 15.9472C2.05474 15.8519 2.06706 16.0119 2.07582 16.2493C2.0854 16.5393 2.09817 16.9361 2.10279 17.13C2.10409 17.2153 2.07769 17.3696 2.08767 17.4305C2.10459 17.4665 2.12165 17.5023 2.13885 17.538C2.09137 17.5854 2.22129 18.2615 2.29442 18.52C2.28117 18.5478 2.268 18.5757 2.25491 18.6036C2.27798 18.6994 2.30202 18.7947 2.32699 18.8895C2.30756 18.8807 2.28813 18.8718 2.26871 18.8629C2.30295 18.9321 2.33768 19.0008 2.37289 19.0689C2.45507 19.3491 2.32479 19.1936 2.40116 19.4013C2.48765 19.6308 2.45401 19.2302 2.49277 19.2298C2.44018 19.0399 2.33848 18.607 2.30868 18.4083C2.29223 18.2947 2.37121 18.4161 2.23379 17.9366C2.23855 17.8272 2.24445 17.7164 2.25187 17.6083C2.20502 17.4147 2.1621 17.2188 2.12326 17.0204C2.14569 16.9817 2.16831 16.9438 2.19106 16.9059C2.19212 16.8856 2.1238 16.4284 2.10731 16.4524C2.11984 16.3991 2.12933 16.3301 2.13716 16.2493C2.15676 16.0449 2.16667 15.7679 2.18396 15.4813C2.17276 15.4418 2.16173 15.4023 2.15085 15.3626C2.15793 15.7543 2.12985 15.486 2.09849 15.6009C2.08042 15.667 2.04469 15.8717 2.02132 15.9472ZM22.8857 28.7313C23.4304 28.3615 23.1033 28.6091 23.7097 28.242C23.651 28.2414 23.5924 28.2404 23.534 28.2391C23.2703 28.4719 22.7469 28.7089 22.8851 28.7316C22.8853 28.7315 22.8855 28.7314 22.8857 28.7313ZM27.8927 24.062C27.6981 24.3803 27.8476 24.2562 27.5811 24.6494C27.581 24.6496 27.5809 24.6498 27.5807 24.65C27.7297 24.4549 27.874 24.2555 28.0127 24.0528C27.9727 24.056 27.9327 24.0591 27.8927 24.062ZM8.63033 28.1042C8.33817 27.8974 8.38266 27.9563 8.14431 27.7308C7.71717 27.4977 8.05363 27.7296 8.02277 27.7737C8.12246 27.8253 8.22262 27.8756 8.32325 27.9247C8.51801 28.1165 8.29223 27.9958 8.28936 27.9995C8.28955 27.9996 8.28974 27.9998 8.28993 27.9999C8.28085 28.0133 8.27151 28.0114 8.35223 28.0773C8.44514 28.0872 8.53785 28.0962 8.63033 28.1042ZM7.34615 27.2597C7.46528 27.3088 7.53505 27.3079 7.30033 27.0867C7.30016 27.0865 7.29998 27.0864 7.29981 27.0862C7.22825 27.1322 7.03257 26.883 6.92437 26.7933C6.89088 26.7753 6.85743 26.7573 6.82403 26.739C6.99311 26.9167 7.16737 27.0905 7.34615 27.2597ZM3.80438 23.1731C3.88158 23.1291 4.02043 23.3609 3.90657 22.9883C3.8696 22.9242 3.83338 22.8602 3.79751 22.7957C3.75768 22.7619 3.71798 22.7279 3.6784 22.6935C3.41516 21.7791 3.02413 21.6521 3.84186 23.0238C3.84203 23.024 3.84219 23.0241 3.84235 23.0243C3.82943 23.0737 3.81678 23.1233 3.80438 23.1731ZM4.70866 24.5756C4.75344 24.558 4.79816 24.5404 4.84282 24.5226C4.87498 24.7568 5.12046 24.9081 5.31859 25.2724C5.35311 25.2919 5.38766 25.3112 5.42225 25.3303C5.48067 25.4807 6.51711 26.5675 6.34344 26.2804C6.26426 26.1599 6.02026 25.9687 6.00299 25.9482C5.94366 25.8805 5.89297 25.768 5.79007 25.6574C5.73054 25.5937 5.57276 25.4869 5.45724 25.3499C5.1946 25.0444 4.85507 24.3947 4.46988 24.0224C4.46069 23.9832 4.45169 23.9439 4.44288 23.9046C4.22627 23.5821 4.2564 23.7143 4.11578 23.3772C3.78225 23.2841 4.91274 24.5985 4.57284 24.3979C4.57297 24.3981 4.5731 24.3982 4.57323 24.3984C4.61794 24.4579 4.66308 24.5169 4.70866 24.5756ZM13.6498 30.1599C13.6654 30.205 14.1248 30.2185 14.0044 30.295C14.1569 30.2853 14.3075 30.2731 14.4586 30.2585C14.4586 30.2496 14.4585 30.2407 14.4585 30.2318C14.3119 30.2204 14.1665 30.207 14.02 30.191C14.0216 30.1771 14.0233 30.1631 14.0249 30.1492C13.7986 30.1739 12.9085 29.9628 12.9493 29.9152C12.8972 29.9244 12.845 29.9332 12.7927 29.9418C12.3838 29.7798 12.0067 29.7321 11.5758 29.523C11.5354 29.5273 11.495 29.5314 11.4545 29.5354C11.4367 29.5141 11.419 29.4927 11.4014 29.4713C11.2394 29.4103 11.0786 29.3463 10.9194 29.2795C10.3756 29.117 11.365 29.6024 11.4992 29.6298C11.5163 29.6346 11.5257 29.5997 11.6322 29.6304C11.8179 29.695 12.8669 30.0358 13.2087 30.0728C13.2065 30.0969 13.2042 30.1211 13.202 30.1453C13.3523 30.1528 13.5008 30.1574 13.6498 30.1599ZM3.003 21.223C3.0172 21.1911 3.03152 21.1593 3.04594 21.1276C2.87558 20.7367 2.81892 20.4711 2.77429 20.6009C2.77436 20.6011 2.77443 20.6013 2.7745 20.6016C2.84596 20.8111 2.92179 21.0172 3.003 21.223ZM20.7142 2.87558C20.7196 2.8261 20.5289 2.74184 20.2658 2.70009C20.274 2.7173 20.2821 2.73451 20.2902 2.75172C20.4331 2.75228 20.5785 2.86891 20.9797 3.00127C20.988 2.97817 20.9963 2.95508 21.0045 2.93199C20.9079 2.91216 20.8111 2.89336 20.7142 2.87558ZM3.12789 21.5712C3.14929 21.7038 3.37616 22.0052 3.28451 21.7824C3.21531 21.6125 3.11623 21.5005 3.12789 21.5712ZM28.6861 22.8275C28.6364 22.9104 28.5859 22.9927 28.5345 23.0746C28.5283 23.1287 28.5218 23.1829 28.5149 23.2371C28.5151 23.2369 28.5152 23.2367 28.5153 23.2365C28.5745 23.1009 28.6315 22.9642 28.6861 22.8275ZM9.68947 28.7163C9.39875 28.567 9.11241 28.407 8.83242 28.2376C8.82248 28.2474 8.81254 28.2573 8.80259 28.2671C9.10839 28.3971 9.19644 28.5063 9.26166 28.5477C9.26137 28.5475 9.26107 28.5473 9.26078 28.5472C9.47011 28.6783 9.67329 28.7956 9.87489 28.9151C9.81219 28.8493 9.75038 28.783 9.68947 28.7163ZM10.6684 29.2767C10.6555 29.1649 10.5924 29.1336 10.1089 28.979C10.1217 28.9984 10.1346 29.0177 10.1475 29.0369C10.3869 29.1428 10.5364 29.1826 10.4738 29.2101C10.5385 29.2328 10.6034 29.255 10.6684 29.2767ZM6.41751 26.4186C6.43844 26.4844 6.81348 26.7885 6.80518 26.758C6.79908 26.7487 6.37289 26.2951 6.41751 26.4186ZM23.99 4.44878C23.9015 4.38201 23.8121 4.3162 23.7218 4.25138C23.8524 4.32085 23.982 4.3924 24.1105 4.46599C24.0703 4.46007 24.0302 4.45433 23.99 4.44878ZM25.0598 5.05336C25.1137 5.11277 24.8611 5.01831 25.214 5.33332C24.9476 5.1161 24.673 4.90831 24.3917 4.71109C24.5313 4.79296 24.6695 4.87714 24.8067 4.96408C24.7993 4.92722 24.7917 4.89034 24.784 4.85343C24.8767 4.91897 24.9687 4.98562 25.0598 5.05336ZM25.3083 5.33662C25.21 5.16245 25.9576 5.8025 26.0129 5.87794C26.0265 5.89333 26.0623 5.99621 26.0804 6.02863C25.9739 5.92603 25.8658 5.82507 25.7562 5.72582C25.7823 5.77066 25.8082 5.8156 25.8337 5.86061C25.7034 5.74736 25.5712 5.63667 25.4371 5.52839C25.5032 5.56448 25.5691 5.60116 25.6349 5.63843C25.5277 5.53621 25.4188 5.43559 25.3083 5.33662ZM21.9782 3.28278C22.0905 3.3345 22.2021 3.38763 22.3127 3.44215C22.301 3.4094 22.2892 3.37665 22.2772 3.34391C22.21 3.31234 22.1425 3.28128 22.0747 3.25073C22.0425 3.26131 22.0103 3.27199 21.9782 3.28278ZM24.1945 4.47828C23.9813 4.47526 23.7083 3.99147 24.1385 4.38688C24.1813 4.4272 24.2151 4.47845 24.1945 4.47828ZM26.2677 6.14438C26.6011 6.35877 26.4046 6.42809 26.1871 6.13269C26.1762 6.11775 26.2426 6.1284 26.2677 6.14438ZM28.1045 8.3771C28.1209 8.40403 28.1013 8.4812 28.3098 8.70223C28.33 8.74775 28.35 8.79336 28.3697 8.83904C28.2925 8.75004 27.7283 7.94648 27.8516 8.02505C27.9395 8.14767 28.0196 8.24609 28.1045 8.3771ZM27.7303 7.46075C27.6375 7.34222 27.5429 7.22519 27.4465 7.10971C27.4629 7.16034 27.479 7.21097 27.4947 7.26162C27.4446 7.20729 27.3941 7.1534 27.3433 7.09993C27.2889 6.9816 27.2327 6.86365 27.1746 6.74615C27.3936 6.9901 27.6043 7.2413 27.8065 7.49977C27.7811 7.48667 27.7558 7.47366 27.7303 7.46075ZM24.9235 4.61636C25.1413 4.81011 25.4377 5.00837 25.7906 5.32241C25.7907 5.32261 25.7908 5.32281 25.791 5.32301C25.8085 5.33875 25.8224 5.38607 25.878 5.43718C25.9347 5.47009 26.8613 6.3443 26.7524 6.31089C26.3851 5.98315 26.2914 5.8162 26.1381 5.80663C26.1353 5.77496 26.1324 5.74326 26.1294 5.71153C25.8082 5.36266 25.6547 5.33163 25.4361 5.18214C25.4471 5.17062 25.4581 5.15909 25.469 5.14757C25.3342 5.03309 25.1973 4.92116 25.0583 4.81164C25.0716 4.83516 25.0849 4.85869 25.0981 4.88224C25.0489 4.84378 24.9994 4.80563 24.9497 4.76779C24.8571 4.63815 24.7068 4.51432 24.9235 4.61636ZM28.1108 8.02736C28.2999 8.06588 28.9589 9.26295 29.2388 9.81494C29.0309 9.5549 28.8348 9.09026 28.6506 8.78607C28.2912 8.2013 28.503 8.62868 28.4254 8.54008C28.3878 8.49659 28.2398 8.12914 28.1108 8.02736ZM24.0404 4.0295C24.3224 4.2229 24.4966 4.30965 24.7109 4.51837C24.6857 4.51096 24.6605 4.50363 24.6353 4.49638C24.5617 4.42593 23.8871 3.94998 24.0404 4.0295ZM29.5877 10.6545C29.3648 10.0302 29.3951 10.3748 29.3254 10.0288C29.4271 10.2305 29.5244 10.4354 29.6168 10.6423C29.6071 10.6463 29.5974 10.6504 29.5877 10.6545ZM3.01355 22.4389C3.1293 22.6934 3.2536 22.9833 3.37286 23.109C3.28946 22.9382 3.20937 22.7656 3.13266 22.5915C3.09257 22.5408 3.05297 22.4901 3.01355 22.4389ZM1.28472 14.6022C1.26601 14.6676 1.27347 14.9288 1.27168 14.9562C1.26739 15.0069 1.25282 14.9917 1.24863 14.9921C1.22581 15.3253 1.29755 15.0218 1.29103 15.2686C1.28771 15.3116 1.23606 15.8862 1.23942 16.1236C1.23943 16.1656 1.23953 16.2076 1.23973 16.2493C1.24092 16.569 1.25065 16.8649 1.25733 16.9839C1.26902 17.2138 1.33517 17.6318 1.38172 18.0046C1.40071 18.158 1.37839 18.2153 1.4006 18.369C1.51325 19.365 2.0934 21.2499 2.44953 22.0591C2.53017 22.2625 2.58148 22.4684 2.63338 22.5721C2.68474 22.6489 2.73659 22.7248 2.78938 22.8008C2.79996 23.109 2.94418 23.1432 3.09783 23.4023C3.19658 23.5671 3.20915 23.6631 3.22197 23.6857C3.30802 23.8338 3.36671 23.8971 3.43876 24.0103C3.51959 24.1377 3.62175 24.3295 3.65389 24.373C3.67512 24.3986 3.65285 24.2876 3.98173 24.7692C4.32091 25.2572 4.68083 25.7224 5.08149 26.1757C5.06068 25.9252 4.87077 25.8633 4.7096 25.6758C4.66666 25.6256 4.71168 25.6429 4.67466 25.599C4.56979 25.4755 4.36076 25.2439 4.28553 25.1321C4.20412 25.0118 4.27803 25.0192 4.15408 24.8824C4.14781 24.8754 4.14628 24.9127 4.11798 24.8798C3.83657 24.5455 3.78775 24.4058 3.50097 23.937C3.27319 23.6474 2.30856 21.6525 2.33085 21.561C2.23836 21.1762 3.16303 23.3025 3.33528 23.5201C3.38024 23.6039 3.30894 23.5297 3.34768 23.6075C3.36426 23.6407 3.57013 23.9022 3.74892 24.1743C3.95954 24.5061 4.3937 25.1698 4.63314 25.4605C6.64925 27.9825 9.44607 29.8344 12.5844 30.6248C12.6512 30.6414 12.7455 30.6361 12.964 30.6857C14.0244 30.9246 15.1217 31.0484 16.2261 31.0503C19.3714 31.0703 22.5591 30.0243 25.0641 28.1303C25.8039 27.575 26.4681 26.9407 27.1149 26.2704C27.1777 26.171 27.2392 26.0711 27.2993 25.9706C27.1193 26.2054 26.7102 26.5616 26.6743 26.5943C26.6616 26.6066 26.6004 26.703 26.4703 26.8274C26.287 27.0021 26.1903 27.0609 26.1753 27.0751C26.1279 27.1185 26.1738 27.1063 26.1283 27.1476C25.788 27.4545 25.5185 27.6858 25.1853 27.9429C24.8068 28.2314 24.5851 28.3336 24.3221 28.5624C24.2798 28.5694 24.2374 28.5761 24.1951 28.5826C24.0302 28.8021 22.6794 29.5574 22.0949 29.7807C21.9131 29.8576 21.933 29.8149 21.8721 29.8405C21.8325 29.8553 21.8666 29.8927 21.3812 30.069C21.1362 30.1554 21.0625 30.1485 20.9399 30.1915C20.8732 30.2145 20.8933 30.2386 20.7967 30.2703C20.2376 30.4509 19.7714 30.5638 19.2067 30.6758C19.0485 30.7065 19.0421 30.6823 19.0068 30.6895C18.8773 30.7152 18.6555 30.7989 18.3206 30.8466C17.7782 30.9338 16.6983 31.0034 16.2261 30.9749C16.2178 30.9746 16.2098 30.9742 16.2019 30.9739C16.1346 30.9708 16.0793 30.9411 16.03 30.9409C15.9555 30.9406 15.9257 30.9703 15.9126 30.9702C15.6634 30.9645 15.8141 30.9403 15.6476 30.9415C15.558 30.9415 15.4632 30.9728 15.2529 30.9633C14.9763 30.9494 15.0342 30.9112 14.9192 30.9058C14.907 30.9053 14.9008 30.9339 14.7881 30.9241C14.3581 30.8884 13.7389 30.8028 13.3402 30.7211C13.2261 30.6983 13.1437 30.6618 12.9847 30.626C12.6569 30.5855 10.8722 30.0256 10.7436 29.9305C10.7292 29.9233 10.8982 29.9463 10.6533 29.8484C10.5758 29.8356 10.4985 29.8223 10.4206 29.808C10.3133 29.7314 10.2074 29.6535 10.1031 29.5745C10.0659 29.6694 9.37708 29.3476 9.4327 29.2594C9.36156 29.2176 9.29093 29.1753 9.22056 29.1324C9.03693 29.1097 8.94821 29.0333 8.64188 28.8974C8.60825 28.8526 8.57488 28.8077 8.5418 28.7626C8.52335 28.7678 8.50487 28.7728 8.48637 28.7779C8.37527 28.6206 8.09156 28.5257 8.06175 28.5057C7.94773 28.4316 7.87446 28.3573 7.82186 28.3214C7.6244 28.1888 7.19451 27.9012 6.98677 27.7148C6.97702 27.7061 7.00732 27.689 6.9486 27.636C6.84326 27.5402 6.80133 27.5678 6.69282 27.402C6.65456 27.3878 6.61632 27.3733 6.57809 27.3587C6.55206 27.3264 6.52619 27.2941 6.50048 27.2617C6.3179 27.1053 6.13895 26.9443 5.96405 26.779C6.15957 26.891 5.99913 26.6963 5.80189 26.5581C5.735 26.5112 5.76119 26.5855 5.73874 26.57C5.70093 26.5549 4.98533 25.7443 4.96396 25.6695C4.92309 25.6371 4.88233 25.6045 4.84176 25.5716C4.8417 25.5382 4.84176 25.5049 4.84194 25.4716C4.81851 25.4544 4.79511 25.4372 4.77176 25.4199C4.62183 25.1819 4.1256 24.6434 4.05937 24.5267C4.02309 24.4658 4.13078 24.4693 3.93875 24.1927C3.91165 24.1963 3.88453 24.1999 3.85739 24.2034C3.81241 24.1402 3.7679 24.0765 3.72387 24.0125C3.6482 23.8875 3.57724 23.6837 3.59931 23.6631C3.56122 23.633 3.52321 23.6027 3.48531 23.5721C3.47088 23.4391 3.1452 22.8802 3.00163 22.6578C2.98367 22.5813 2.96658 22.5052 2.95002 22.4288C2.88773 22.3449 2.82619 22.26 2.76544 22.1743C2.66418 21.9581 2.7969 22.1752 2.77925 22.1274C2.73903 22.0279 2.47946 21.5431 2.5627 21.549C2.53592 21.4795 2.50966 21.4098 2.48391 21.3398C2.45089 21.3111 2.41799 21.2823 2.38521 21.2534C2.4107 21.1085 2.30874 20.9093 2.20243 20.4675C2.17556 20.436 2.14879 20.4043 2.12212 20.3724C2.1055 20.2309 2.09095 20.0892 2.07847 19.9475C2.04451 19.9266 2.0106 19.9055 1.97677 19.8844C1.95789 19.8263 1.93935 19.7679 1.92117 19.7094C1.95183 19.5747 1.83805 19.3717 1.84011 19.2544C1.84391 19.0844 1.91008 19.2023 1.98546 19.4989C2.01795 19.4673 1.8225 18.5806 1.79697 18.3713C1.79027 18.3863 1.78359 18.4012 1.77693 18.4162C1.8154 18.6277 1.8587 18.8391 1.90633 19.0478C1.82926 19.2468 1.74738 18.6661 1.69733 18.4011C1.6927 18.377 1.62849 18.2457 1.60051 17.9744C1.58813 17.8683 1.61201 17.4554 1.61106 17.3774C1.59962 16.7455 1.53331 17.2127 1.58986 16.594C1.54664 16.6936 1.55842 16.5086 1.56433 16.2493C1.56615 16.1699 1.56747 16.0839 1.56621 15.9973C1.56279 15.9338 1.53499 15.4012 1.53832 15.3633C1.54509 15.1376 1.5807 15.3856 1.59101 15.0603C1.5802 15.0203 1.56954 14.9802 1.55905 14.94C1.5657 14.8645 1.57287 14.7896 1.58071 14.714C1.75413 14.2692 1.68286 14.1562 1.69487 13.9919C1.70046 13.9257 1.7189 14.0148 1.7395 13.8445C1.74761 13.7805 1.73228 13.7052 1.76201 13.5343C1.85967 12.9989 2.0145 12.8493 2.02699 12.3363C2.06418 12.2669 2.10185 12.198 2.14001 12.1296C2.13436 12.0742 2.12902 12.0188 2.124 11.9633C2.29928 11.6034 2.19863 11.7213 2.24358 11.5853C2.35894 11.2256 2.65938 10.5118 2.73541 10.4718C2.75755 10.1254 3.04488 9.8285 3.09826 9.71319C3.11971 9.63888 3.14178 9.56466 3.16446 9.49057C3.21817 9.41748 3.27247 9.34504 3.32734 9.27326C3.20603 9.25695 3.52972 8.90437 3.55476 8.86873C3.57856 8.82391 3.92341 8.19857 4.07811 7.98207C4.22666 7.76153 4.52654 7.40936 4.55217 7.37789C4.57972 7.34031 4.83121 6.96448 5.06284 6.6973C5.2419 6.43999 6.58028 5.19492 6.47578 5.25041C6.37689 5.31933 6.24238 5.4253 6.1304 5.52192C5.73808 5.77715 3.97655 7.83066 3.66043 8.45495C2.91377 9.62152 2.32883 10.9594 1.95011 12.2989C1.92777 12.3778 1.89629 12.3823 1.87754 12.4504C1.84855 12.5543 1.81247 12.8232 1.78895 12.9259C1.69677 13.3095 1.60979 13.7775 1.57814 13.9873C1.50672 14.4502 1.45668 14.7723 1.42649 15.1264C1.41541 15.2387 1.41889 15.8011 1.40491 16.1889C1.40248 16.209 1.40008 16.2291 1.39773 16.2493C1.39184 16.2996 1.38621 16.3499 1.38083 16.4002C1.37855 16.3609 1.37571 16.3091 1.37293 16.2493C1.36047 16.0038 1.35551 15.6278 1.36474 15.4326C1.38096 15.0692 1.4241 14.8844 1.43641 14.7521C1.44481 14.6398 1.4873 14.0701 1.53235 13.8122C1.5454 13.7322 1.57852 13.721 1.59032 13.6529C1.65302 13.2842 1.75968 12.801 1.81387 12.4795C1.78614 12.609 2.02757 11.8153 2.04607 11.7759C2.06858 11.7048 2.06568 11.6186 2.11443 11.4741C2.21026 11.1967 2.25242 11.2532 2.32613 10.8891C2.37514 10.8107 2.42479 10.7331 2.47505 10.6561C2.39478 10.6165 2.95926 9.61687 3.0366 9.29069C3.01622 9.2692 2.35305 10.6093 2.32391 10.7311C2.03397 11.4136 1.73838 12.4716 1.5853 13.1735C1.53267 13.3818 1.37244 14.0483 1.36962 14.099C1.35933 14.1812 1.3974 14.111 1.39338 14.1466C1.32032 14.8754 1.31349 14.5074 1.28472 14.6022ZM25.5507 5.04471C25.3863 4.90348 25.2188 4.76593 25.0482 4.63199C25.0714 4.62753 25.0946 4.62313 25.1178 4.61877C25.1928 4.68481 25.2671 4.75156 25.3406 4.819C25.4069 4.85853 25.473 4.89863 25.5388 4.93928C25.5429 4.97445 25.5468 5.0096 25.5507 5.04471ZM26.0038 5.33913C26.15 5.45898 26.1311 5.49325 26.1619 5.52395C26.2533 5.61622 26.345 5.68272 26.435 5.77107C26.2702 5.73232 26.0743 5.49369 26.0038 5.33913ZM22.8052 3.12029C22.8423 3.14366 23.0507 3.35394 23.3754 3.43485C23.5733 3.57763 23.7663 3.72448 23.9559 3.87623C23.6326 3.62008 23.1125 3.38471 22.9355 3.29328C22.8683 3.25776 22.8686 3.22529 22.8144 3.19729C22.5012 3.03546 22.1638 2.95764 22.1698 2.855C22.4621 3.01507 22.7584 3.09093 22.8052 3.12029ZM24.6118 4.23794C24.6464 4.28672 24.6807 4.33563 24.7145 4.38466C24.5499 4.26667 24.3825 4.1519 24.2133 4.04096C24.2703 4.05394 24.3273 4.06729 24.3843 4.08102C24.4605 4.13256 24.5365 4.18494 24.6118 4.23794ZM9.70914 3.05306C9.82243 2.99727 9.93598 2.94318 10.0504 2.89048C10.0379 2.87992 9.90733 2.94112 9.85527 2.95535C9.85548 2.95525 9.8557 2.95514 9.85591 2.95504C9.79772 2.97068 9.8122 2.94244 9.71141 2.98252C9.7106 3.00604 9.70985 3.02956 9.70914 3.05306ZM27.4474 25.8963C27.6142 25.7574 28.7638 24.1649 28.6063 24.2626C28.5414 24.3202 28.1828 24.8844 28.0611 25.0399C27.9055 25.2569 27.4074 25.7729 27.4474 25.8963ZM29.3957 23.0272C29.3732 22.9785 28.7663 24.0383 28.6985 24.1377C28.7185 24.1203 28.7537 24.0962 28.7749 24.0695C28.8827 23.9416 29.267 23.258 29.3957 23.0272ZM4.23241 7.46011C4.31288 7.39607 4.3939 7.33296 4.47538 7.27087C4.43171 7.27019 4.38798 7.26971 4.34419 7.26941C4.30638 7.33281 4.26915 7.39633 4.23241 7.46011ZM1.39813 16.4799C1.42058 18.1287 1.71923 19.7772 2.28321 21.3276C2.21992 21.1965 2.15842 21.0641 2.09876 20.9303C1.65024 19.5744 1.40849 18.0597 1.35118 16.6852C1.36637 16.6166 1.38202 16.5482 1.39813 16.4799ZM22.4571 2.77688C22.0724 2.59911 21.7383 2.48722 21.3196 2.28971C21.7469 2.40558 21.9235 2.54428 22.338 2.66468C22.3382 2.66478 22.3385 2.66488 22.3387 2.66498C22.3785 2.70212 22.4179 2.73942 22.4571 2.77688ZM13.2267 1.70169C13.3475 1.65187 13.4694 1.60355 13.5925 1.55671C13.439 1.58403 13.2875 1.61346 13.1347 1.64565C13.1655 1.66424 13.1961 1.68292 13.2267 1.70169ZM7.96439 28.7304C8.35768 28.9416 9.30392 29.5884 9.66506 29.6809C9.68778 29.687 9.50702 29.5696 9.84188 29.673C9.60118 29.5702 9.43212 29.4942 9.39567 29.5222C9.33281 29.474 9.27045 29.4253 9.20861 29.3763C9.09013 29.3249 8.97152 29.2715 8.85397 29.2167C8.88661 29.1876 8.8763 29.1855 8.6908 29.1099C8.61805 29.055 8.54608 28.9997 8.47441 28.9436C8.43263 28.9385 8.39082 28.9332 8.34898 28.9277C8.29523 28.8655 8.24216 28.803 8.18977 28.7402C7.92029 28.5962 8.04957 28.7367 7.96439 28.7304ZM6.71608 27.7929C6.74746 27.8729 8.45203 29.0404 7.73062 28.4348C7.53015 28.298 7.3333 28.1565 7.13957 28.0099C7.21494 28.2421 6.76732 27.7359 6.73062 27.6968C6.53863 27.521 6.26922 27.3256 6.13167 27.1956C6.01327 27.0841 5.96042 26.9997 5.87803 26.9208C5.59485 26.6542 5.17845 26.2031 5.08149 26.1757C5.28243 26.4029 5.49397 26.6274 5.71897 26.8485C5.95757 27.0801 6.13278 27.3274 6.65868 27.6766C6.7725 27.7818 6.70322 27.7791 6.71608 27.7929ZM13.9784 1.49896C13.9703 1.55264 14.7472 1.44145 14.751 1.42355C14.7519 1.4098 14.4958 1.43731 14.459 1.43726C14.4588 1.43729 14.4585 1.43732 14.4583 1.43735C14.4428 1.43702 14.5174 1.40624 14.3968 1.41468C14.2564 1.44084 14.1169 1.46895 13.9784 1.49896ZM25.3116 28.0904C25.4464 28.0882 27.2337 26.4281 27.2367 26.3319C27.2467 26.3147 27.2181 26.3253 27.2174 26.3142C26.8697 26.7659 26.2479 27.2872 25.8335 27.6276C25.7182 27.7234 25.7667 27.7116 25.7605 27.7175C25.7603 27.7177 25.76 27.7179 25.7597 27.7182C25.6947 27.774 25.3618 27.9707 25.3116 28.0904ZM10.3844 29.9815C10.2926 29.9328 10.2015 29.8832 10.1111 29.8327C10.08 29.8379 10.0489 29.843 10.0178 29.848C10.018 29.8481 10.0182 29.8482 10.0184 29.8483C10.1398 29.8943 10.2618 29.9387 10.3844 29.9815ZM13.8061 31.0317C13.7831 31.0155 13.7602 30.9992 13.7373 30.9829C13.4799 30.9379 13.2263 30.8868 12.9712 30.8284C12.9984 30.8273 13.0255 30.8261 13.0527 30.8249C12.6722 30.7221 12.5063 30.7217 12.304 30.6613C12.3042 30.6614 12.3044 30.6614 12.3047 30.6615C12.283 30.6548 12.2634 30.623 12.1829 30.5995C11.9976 30.5485 11.4761 30.372 11.4054 30.3727C11.2516 30.3861 12.3204 30.6961 12.5244 30.7384C12.6145 30.7627 12.7187 30.811 12.7742 30.8246C12.835 30.8393 12.9246 30.8293 13.0732 30.8623C13.117 30.8737 13.5926 31.0048 13.8061 31.0317ZM18.3951 31.0331C18.312 31.0173 18.1498 31.0661 18.0879 31.069C18.0732 31.0697 18.1837 31.0325 18.0453 31.0427C18.0083 31.0632 17.9711 31.0835 17.9338 31.1037C18.0884 31.0825 18.2422 31.059 18.3951 31.0331ZM15.2912 1.33279C15.2678 1.32678 14.8457 1.36164 14.8263 1.36872C14.5791 1.43973 15.4493 1.36417 15.2912 1.33279ZM25.3345 4.32627C25.2465 4.12162 26.9619 5.69679 27.0855 5.88943C27.0458 5.91177 26.6914 5.48789 26.8494 5.73739C26.6847 5.51336 26.1118 5.01087 25.9796 4.89037C25.9012 4.81499 25.9057 4.76688 25.894 4.75525C25.8488 4.70762 25.3751 4.38644 25.3345 4.32627ZM28.2924 7.37562C28.169 7.19331 28.0413 7.01328 27.9098 6.83625C28.0771 7.03532 28.2397 7.23922 28.3966 7.44683C28.3619 7.4229 28.3272 7.39917 28.2924 7.37562ZM28.4716 7.58775C28.5074 7.55395 28.8998 8.19338 29.0075 8.35816C28.8264 8.2097 28.6867 7.86125 28.4716 7.58775ZM18.1106 1.3049C17.7694 1.23416 17.6072 1.35591 18.0315 1.34317C18.0443 1.34268 18.1247 1.30822 18.1106 1.3049ZM7.94772 28.95C7.99397 28.9867 8.60185 29.4115 8.65243 29.4102C8.80401 29.4173 8.37169 29.1988 8.24891 29.0884C8.05151 28.9119 8.39104 29.0923 7.84584 28.7655C7.87523 28.7683 7.9046 28.7711 7.93394 28.7737C7.62885 28.5633 7.6749 28.7097 7.61245 28.6825C7.59313 28.6743 7.40717 28.5328 7.36971 28.5127C6.89568 28.2675 7.89639 28.9289 7.94772 28.95ZM9.75848 2.63206C9.1211 2.90025 9.41132 2.81662 8.79053 3.15444C8.7818 3.18589 9.68419 2.68711 9.75848 2.63206ZM3.33035 24.1152C3.71433 24.717 4.02427 25.2214 4.48366 25.7073C4.49341 25.6432 3.22942 23.9653 3.33035 24.1152ZM30.3843 21.7572C29.2593 24.3131 27.2919 26.9602 24.8398 28.6414C24.5744 28.825 24.5293 28.8122 24.4341 28.8793C24.3715 28.9228 24.3972 28.938 24.3116 28.9928C21.8527 30.563 19.031 31.3692 16.2261 31.3669C15.4992 31.3671 14.7786 31.315 14.0621 31.209C13.8397 31.1865 12.7947 30.9243 12.5532 30.9422C12.3667 30.9659 13.1365 31.0964 13.264 31.1165C13.3592 31.1356 13.3575 31.1665 13.4213 31.1786C13.4891 31.1913 13.4369 31.1603 13.5156 31.1743C13.8503 31.2336 14.2139 31.2939 14.5199 31.3259C15.0889 31.3863 15.6567 31.415 16.2261 31.4132C18.6397 31.4062 21.0147 30.841 23.1681 29.7324C23.4888 29.5653 23.4337 29.6197 23.4501 29.6117C23.4503 29.6115 23.4505 29.6114 23.4506 29.6112C25.1693 28.6956 26.8717 27.2158 28.1473 25.608C29.0548 24.4815 29.8021 23.2225 30.3551 21.8811C30.3651 21.8398 30.3748 21.7985 30.3843 21.7572ZM6.76444 27.9817C6.84774 28.1651 6.93135 28.125 7.42964 28.5349C7.48155 28.5526 7.5335 28.57 7.58548 28.5871C7.30491 28.3945 7.03069 28.1923 6.7636 27.9811C6.76388 27.9813 6.76416 27.9815 6.76444 27.9817ZM10.3904 30.1864C10.437 30.3573 11.8307 30.7811 12.4614 30.9447C12.5908 30.9178 11.6727 30.6947 11.4641 30.6094C11.3581 30.5727 10.8182 30.3164 10.3897 30.1722C10.3899 30.1769 10.3902 30.1816 10.3904 30.1864ZM23.3834 2.85031C23.2887 2.80376 23.1935 2.7582 23.0978 2.71362C23.3268 2.8457 23.5519 2.98357 23.7732 3.12717C23.4134 2.90946 23.045 2.70697 22.6679 2.51981C22.7498 2.52954 22.8318 2.53993 22.9142 2.55123C23.0729 2.64829 23.2293 2.74802 23.3834 2.85031ZM22.1449 2.27252C22.8251 2.55965 22.0925 2.31061 21.9344 2.21637C21.8396 2.1577 22.0755 2.24357 22.1449 2.27252ZM20.3487 1.59495C20.6942 1.63942 21.3588 1.86305 21.0938 1.86989C20.7533 1.71164 20.5156 1.67204 19.9984 1.5121C20.0791 1.5146 20.1604 1.51792 20.2414 1.5218C20.2418 1.5219 20.2421 1.522 20.2425 1.52209C20.278 1.54625 20.3134 1.57054 20.3487 1.59495ZM22.4766 2.35719C22.8981 2.5992 21.6205 2.02617 22.0381 2.16784C22.058 2.17267 22.4608 2.34615 22.4766 2.35719ZM29.0567 24.5547C29.0639 24.4898 28.8597 24.802 28.7862 24.9025C28.4749 25.3415 28.0611 25.895 27.6866 26.3119C27.7218 26.2867 27.7569 26.2613 27.792 26.2358C28.2513 25.7053 28.6742 25.1432 29.0567 24.5547ZM26.4579 27.5586C26.1728 27.8167 25.8779 28.0642 25.5741 28.3001C25.546 28.3222 25.4278 28.4449 25.5311 28.3737C25.8511 28.1143 26.1604 27.8422 26.4579 27.5586ZM4.89106 26.4527C5.07543 26.6851 4.44553 26.1037 4.54402 26.0703C4.65761 26.1997 4.77331 26.3272 4.89106 26.4527ZM3.21506 24.2794C3.32009 24.4326 3.42774 24.5837 3.53793 24.7325C3.52929 24.7386 3.52065 24.7447 3.51202 24.7507C3.41025 24.5955 3.31124 24.4384 3.21506 24.2794ZM29.8357 23.2541C29.715 23.4127 29.4952 23.8261 29.3433 24.0752C29.4745 23.9196 29.6972 23.4931 29.8357 23.2541ZM8.25852 29.2992C8.24572 29.2743 9.26748 29.8545 8.89134 29.6943C8.67676 29.5675 8.46593 29.4358 8.25852 29.2992ZM10.3716 30.4154C10.136 30.3238 9.96049 30.2346 10.0238 30.2207C10.1453 30.2765 10.2681 30.331 10.3907 30.3834C10.3843 30.3941 10.378 30.4047 10.3716 30.4154ZM19.0843 1.22302C18.6654 1.14737 18.2454 1.08954 17.8207 1.04898C17.8375 1.04011 17.8544 1.03126 17.8712 1.02245C18.2811 1.06281 18.687 1.1193 19.0916 1.19234C19.0892 1.20257 19.0867 1.21279 19.0843 1.22302ZM30.0293 23.0814C30.154 22.8144 30.2703 22.5454 30.3794 22.2719C30.2573 22.5402 30.1284 22.8032 29.9914 23.0634C30.004 23.0697 30.0166 23.0759 30.0292 23.0822C30.0292 23.0819 30.0293 23.0817 30.0293 23.0814ZM24.5383 3.24774C23.4452 2.51777 24.9097 3.34302 25.1418 3.61926C25.1422 3.61942 25.1425 3.61959 25.1429 3.61975C25.1639 3.64248 25.0938 3.63074 25.1277 3.67002C25.0271 3.58159 24.925 3.49424 24.8219 3.40826C24.7111 3.3549 24.5998 3.30292 24.4881 3.25234C24.458 3.22508 24.4278 3.19793 24.3975 3.17088C24.4446 3.19625 24.4915 3.22187 24.5383 3.24774ZM28.4453 6.78164C29.1506 7.73949 28.3782 6.79884 28.0408 6.31611C28.0557 6.30907 28.3803 6.69311 28.4453 6.78164ZM26.2884 4.5374C26.1417 4.42054 25.993 4.3064 25.8425 4.19514C25.8293 4.17331 25.8161 4.1515 25.8028 4.12971C25.9211 4.21211 26.0382 4.2961 26.1545 4.38197C26.1995 4.43354 26.2441 4.48535 26.2884 4.5374ZM20.9891 1.41399C20.7003 1.31509 20.3056 1.28749 21.2393 1.56293C21.2422 1.55277 21.2451 1.54262 21.2481 1.53247C21.2108 1.52139 21.0994 1.49471 21.0937 1.4921C21.0775 1.48407 21.1088 1.45685 20.9891 1.41399ZM29.9102 8.47579C29.9299 8.5037 30.04 8.46538 30.1096 8.83677C30.167 8.92904 30.2234 9.02202 30.2789 9.11573C30.2698 9.15188 30.2605 9.18796 30.2511 9.22396C30.0785 8.84163 30.0096 8.82839 29.9952 8.80193C29.9247 8.68214 29.9964 8.76015 29.9534 8.6813C29.8442 8.47652 29.5582 8.03465 29.7434 8.20206C29.8104 8.26257 29.8899 8.44771 29.9102 8.47579ZM29.5389 7.73893C29.5587 7.78688 29.4423 7.66619 29.4554 7.70365C29.4689 7.73542 29.7072 8.1829 29.588 8.09523C29.5468 8.02343 29.5051 7.95197 29.4628 7.88085C29.4605 7.8491 29.4581 7.81733 29.4557 7.78553C29.4006 7.72544 29.3452 7.66588 29.2893 7.60685C29.2464 7.47417 29.1225 7.20774 29.3405 7.475C29.2676 7.37192 29.1933 7.26951 29.118 7.16822C29.0657 7.12507 29.0132 7.08234 28.9606 7.04004C29.0026 7.05175 29.0447 7.06368 29.0867 7.07582C29.243 7.29301 29.3938 7.51415 29.5389 7.73893ZM31.2137 11.2725C31.1955 11.2623 31.1773 11.2522 31.1591 11.2421C31.3356 11.6731 31.5297 12.3681 31.337 11.9965C31.1612 11.3976 30.9485 10.8072 30.7021 10.234C30.696 10.1917 30.6897 10.1496 30.6831 10.1071C30.8243 10.5526 30.9309 10.355 31.0301 10.7551C31.0454 10.8227 30.9226 10.6561 31.1038 11.0487C31.112 11.0296 31.1202 11.0104 31.1284 10.9912C31.1577 11.0846 31.1861 11.1784 31.2137 11.2725ZM31.9576 15.1803C31.9156 14.3873 32.0389 15.2548 32 15.4061C32 15.4059 32 15.4056 32 15.4054C31.9047 15.8116 31.9145 14.9474 31.9037 14.8956C31.8961 14.8254 31.8022 14.6745 31.8767 14.2815C31.9123 14.5814 31.9391 14.8796 31.9576 15.1803ZM31.5937 12.6155C31.6117 12.6799 31.5826 12.6487 31.5894 12.6767C31.5895 12.6769 31.5895 12.6772 31.5896 12.6774C31.6999 13.0898 31.8799 14.0862 31.8192 14.2036C31.791 13.8916 31.4998 12.5171 31.5101 12.4275C31.5384 12.4899 31.5662 12.5525 31.5937 12.6155ZM30.5871 9.80441C30.5202 9.54798 30.7675 10.0825 30.8044 10.2336C30.8111 10.262 30.6559 10.0688 30.5871 9.80441ZM14.3289 0.51031C13.7603 0.609074 14.5145 0.540289 14.2599 0.61428C14.3682 0.597224 14.4769 0.581269 14.586 0.566427C14.5005 0.547037 14.4149 0.528329 14.3289 0.51031ZM0.632987 19.5495C0.656393 19.6832 0.667946 19.6149 0.670736 19.6264C0.68879 19.7134 0.687184 19.7996 0.69698 19.8324C0.884417 20.4345 0.807319 20.0221 0.810291 20.0154C0.831688 19.9968 0.898846 20.149 0.873354 19.9215C0.83272 19.7894 0.793744 19.6565 0.756457 19.5227C0.755927 19.4524 0.755985 19.3826 0.756515 19.313C0.675182 19.0502 0.734669 19.4031 0.704712 19.451C0.692622 19.4699 0.622069 19.2188 0.632987 19.5495ZM13.2916 0.583433C13.2068 0.643854 12.9942 0.742967 13.2225 0.743357C13.2228 0.743309 13.223 0.743261 13.2233 0.743214C13.2654 0.743129 13.4322 0.716894 13.4853 0.719413C13.8405 0.600479 13.692 0.560224 13.2916 0.583433ZM0.232634 17.0781C0.231497 16.8534 0.235002 16.6282 0.243195 16.4023C0.269718 16.4059 0.296243 16.4094 0.322768 16.413C0.316842 16.5333 0.312253 16.6535 0.308993 16.7735C0.322431 16.8151 0.336029 16.8565 0.349784 16.8979C0.37402 16.7486 0.400319 16.5996 0.428671 16.451C0.423859 16.3839 0.419466 16.3167 0.415495 16.2493C0.408907 16.1375 0.403481 16.0258 0.399211 15.9142C0.383531 15.996 0.368472 16.0781 0.354044 16.1606C0.344078 15.7219 0.407138 15.8184 0.446756 15.4608C0.428317 15.3363 0.411379 15.2106 0.395881 15.0851C0.433498 14.9075 0.473892 14.7328 0.517391 14.5572C0.539047 14.2567 0.525198 14.2279 0.473089 14.4264C0.458303 14.2732 0.52919 14.1167 0.542213 13.9371C0.543318 13.9222 0.509331 13.9455 0.51087 13.9325C0.636761 13.0035 0.72531 13.0738 0.754957 12.9273C0.777589 12.8247 0.822006 12.4043 0.807105 12.3935C0.788657 12.3784 0.4703 13.2105 0.817212 11.8725C0.553187 12.5435 0.470761 13.3602 0.672012 12.8654C0.605896 13.0819 0.467625 14.0639 0.463673 14.1259C0.447261 14.2164 0.414173 14.1796 0.398949 14.2942C0.391463 14.3626 0.44813 14.5502 0.332695 15.0806C0.341701 15.1504 0.351158 15.2202 0.361065 15.2899C0.34571 15.3537 0.330693 15.4185 0.316141 15.4818C0.281338 15.3473 0.248326 15.2103 0.216985 15.0737C0.222397 15.5458 0.153401 15.9368 0.187001 16.2493C0.191507 16.2908 0.197856 16.3306 0.206477 16.3687C0.200724 16.6487 0.198677 16.7842 0.158774 16.6652C0.160911 16.7492 0.163693 16.833 0.167115 16.9167C0.188689 16.9708 0.210525 17.0245 0.232634 17.0781ZM11.6537 1.04552C11.3788 1.08575 11.3113 1.20306 11.3537 1.19411C11.5915 1.14597 11.7964 1.02563 11.6537 1.04552ZM0.583836 19.0496C0.552986 18.7458 0.531284 18.4437 0.518118 18.1404C0.490301 18.1437 0.462484 18.1471 0.434666 18.1504C0.47584 18.4519 0.525404 18.7507 0.583836 19.0496ZM14.4057 0.437939C14.436 0.455626 14.4661 0.473396 14.4962 0.491251C14.819 0.378587 15.1566 0.465656 15.3189 0.434051C15.3543 0.427117 15.2802 0.393999 15.2117 0.390389C15.1681 0.384316 14.4649 0.420074 14.4057 0.437939ZM27.1458 4.68608C27.046 4.61119 26.9454 4.53753 26.8442 4.46522C26.8651 4.45226 26.886 4.43932 26.9069 4.4264C26.9553 4.46426 27.0036 4.50245 27.0517 4.54091C27.0834 4.58919 27.1148 4.63758 27.1458 4.68608ZM26.0556 3.79314C25.8836 3.65486 25.7086 3.51999 25.5311 3.38901C26.2194 3.87495 25.6734 3.45028 26.0981 3.73926C26.084 3.75722 26.0698 3.77518 26.0556 3.79314ZM24.2356 2.49433C24.2662 2.49587 24.2969 2.4975 24.3275 2.49922C24.5184 2.61188 24.7076 2.72899 24.8938 2.84965C24.8026 2.73225 24.7093 2.61565 24.6138 2.49993C24.5438 2.45696 24.4736 2.41468 24.403 2.37284C24.347 2.41311 24.2912 2.45361 24.2356 2.49433ZM2.84583 25.0995C2.91795 25.2136 3.22219 25.5734 3.22411 25.5468C3.1268 25.3777 3.03246 25.2067 2.94187 25.0349C2.91797 25.0497 2.89407 25.0645 2.87017 25.0792C2.86665 25.0486 2.86322 25.018 2.85989 24.9874C2.79067 24.9009 2.72225 24.8135 2.65467 24.7253C2.64589 24.665 2.63748 24.6048 2.62945 24.5446C2.57641 24.5115 2.52364 24.4783 2.47087 24.4446C2.70542 24.9278 2.74368 24.8829 2.80233 24.9769C2.83289 25.0243 2.83805 25.0636 2.8418 25.0851C2.84314 25.0899 2.84448 25.0947 2.84583 25.0995ZM0.372063 18.8715C0.471613 19.5052 0.627079 19.8451 0.681405 20.3073C0.708018 19.9973 0.221908 18.1384 0.314261 17.4519C0.288016 17.384 0.262197 17.3156 0.236811 17.2468C0.278488 17.613 0.261354 17.8665 0.274978 18.0475C0.286132 18.19 0.306803 18.1724 0.307684 18.1833C0.307745 18.1838 0.307806 18.1843 0.307868 18.1849C0.339911 18.5172 0.334574 18.6201 0.372063 18.8715ZM14.8656 0.288639C14.6925 0.268865 14.3931 0.304781 14.3954 0.353978C14.5636 0.348993 14.7298 0.346862 14.8965 0.347239C14.8615 0.337638 14.8951 0.29189 14.8656 0.288639ZM24.0788 2.24775C23.9698 2.16724 23.6837 2.03018 23.7842 2.13171C23.8024 2.14914 24.0926 2.27524 23.8942 2.25267C24.1622 2.39995 24.1408 2.29357 24.0788 2.24775ZM2.343 8.35637C2.39738 8.25809 2.45276 8.16043 2.50914 8.06341C2.50569 8.03089 2.50234 7.99832 2.4991 7.96571C2.44528 8.0954 2.39325 8.22563 2.343 8.35637ZM16.3118 0.198148C16.4611 0.29499 16.7192 0.205377 16.9948 0.297781C17.0975 0.30326 17.2019 0.309827 17.305 0.317331C17.3053 0.317348 17.3055 0.317365 17.3058 0.317382C17.3103 0.291384 17.3149 0.265387 17.3195 0.239392C16.9817 0.215098 16.6501 0.201558 16.3118 0.198148ZM0.259954 14.9929C0.27749 14.9248 0.295454 14.8569 0.313838 14.7893C0.31074 14.666 0.309145 14.5416 0.309048 14.4169C0.291341 14.4822 0.27402 14.5479 0.257112 14.6137C0.256592 14.74 0.257537 14.8664 0.259954 14.9929ZM18.136 0.302181C17.7742 0.249237 17.6307 0.3193 18.0925 0.369337C18.2864 0.392261 18.513 0.362052 18.136 0.302181ZM7.80856 29.8698C7.70654 29.7982 7.60547 29.7255 7.50539 29.6518C7.46038 29.6434 7.41536 29.6348 7.37031 29.6261C7.51515 29.7096 7.66126 29.7909 7.80856 29.8698ZM25.5289 3.17977C25.5068 3.18561 25.4847 3.19148 25.4627 3.1974C25.3744 3.13046 25.2853 3.0644 25.1955 2.99922C25.2284 3.00042 25.2613 3.00174 25.2943 3.00316C25.3731 3.06136 25.4513 3.12023 25.5289 3.17977ZM7.11529 29.4021C7.03558 29.3428 6.95648 29.2826 6.87798 29.2219C6.81893 29.1898 6.76005 29.1573 6.70133 29.1244C6.77097 29.1866 6.84123 29.2482 6.91209 29.3092C6.97967 29.3407 7.04741 29.3717 7.11529 29.4021ZM21.4906 1.0813C21.3654 1.01352 20.8128 0.905188 21.286 1.07669C21.5855 1.18927 21.5093 1.09164 21.4906 1.0813ZM22.2055 1.32603C21.7222 1.09654 22.0241 1.41952 22.6572 1.54985C22.0615 1.31474 22.233 1.34179 22.2055 1.32603ZM26.3126 3.59978C26.323 3.60833 26.3136 3.63802 26.3966 3.70664C26.6964 3.95283 27.0713 4.3014 27.2709 4.49347C27.7795 4.92517 29.144 6.45385 29.1932 6.71494C29.2081 6.76534 29.0976 6.70544 29.1074 6.72331C29.137 6.77445 29.3556 7.03492 29.2868 7.00682C29.095 6.73573 28.8947 6.4704 28.6864 6.21171C28.7592 6.25777 28.8317 6.30456 28.904 6.35207C28.3729 5.71221 28.5418 5.92916 28.3431 5.78541C28.2692 5.66408 28.1934 5.54353 28.1159 5.42374C27.8922 5.213 27.6629 5.00917 27.4285 4.81246C27.4902 4.84835 27.5517 4.88473 27.6131 4.92157C27.3085 4.57373 27.3832 4.67946 27.1714 4.53702C27.183 4.52388 27.1946 4.51073 27.2062 4.49759C26.8506 4.22608 26.8173 4.13373 26.7445 4.06852C26.59 3.93746 26.2779 3.92784 25.7942 3.3078C25.4772 3.19815 25.5993 3.03942 25.3851 3.01466C24.9973 2.61417 25.8368 3.22985 26.2155 3.54452C26.2157 3.54468 26.2159 3.54484 26.2161 3.545C26.245 3.56828 26.2106 3.51676 26.3126 3.59978ZM23.9256 2.13457C24.2627 2.20746 23.1074 1.59564 23.4323 1.91166C23.4876 1.94426 23.5426 1.97717 23.5974 2.01039C23.7074 2.05068 23.8168 2.09209 23.9263 2.13494C23.926 2.13482 23.9258 2.1347 23.9256 2.13457ZM12.0639 0.655713C10.9124 1.02517 11.5869 0.881838 11.9656 0.722281C12.0417 0.690956 12.0816 0.666143 12.0639 0.655713ZM0.477842 19.785C0.492364 19.7999 0.506906 19.8147 0.521467 19.8295C0.415591 19.4357 0.330215 18.6585 0.261817 18.6789C0.321166 19.0516 0.392611 19.4174 0.477842 19.785ZM0.0447698 16.6072C0.0410894 16.6948 0.0447558 17.0507 0.0709499 17.0064C0.0833749 16.8519 0.0979695 16.6975 0.114739 16.5431C0.10125 16.4716 0.0882269 16.3998 0.0756768 16.3278C0.0717976 16.4284 0.0452908 16.5835 0.0447698 16.6072Z" fill="#D72835"/>
</svg>
